<svg xmlns="http://www.w3.org/2000/svg" xmlnsXlink="http://www.w3.org/1999/xlink" width="500" zoomAndPan="magnify" viewBox="0 0 375 374.999991" height="500" preserveAspectRatio="xMidYMid meet" version="1.0"><defs><g/><clipPath id="c4f159e33d"><path d="M 22.648438 34.585938 L 356.699219 34.585938 L 356.699219 374.933594 L 22.648438 374.933594 Z M 22.648438 34.585938 " clipRule="nonzero"/></clipPath></defs><g clipPath="url(#c4f159e33d)"><path fill="#eb690a" d="M 356.699219 114.179688 L 356.660156 112.765625 C 347.480469 111.832031 338.269531 110.097656 329.171875 108.082031 C 292.683594 99.9375 257.242188 86.851562 223.175781 71.566406 C 213.859375 67.3125 202.515625 61.945312 193.460938 57.234375 C 182.308594 51.667969 170.222656 44.921875 159.351562 38.890625 L 152.320312 34.695312 L 28.78125 313.761719 L 27.441406 317.269531 L 27.15625 318.007812 L 22.976562 328.945312 C 27.691406 329.128906 33.597656 329.46875 38.265625 329.832031 C 47.898438 330.582031 58.503906 331.671875 68.136719 332.828125 C 103.039062 337.042969 146.871094 345.359375 181.261719 352.832031 C 210.542969 359.070312 240.457031 366.824219 269.273438 374.933594 C 259.71875 371.683594 250.191406 368.324219 240.59375 365.15625 C 212.027344 355.761719 182.375 347.015625 153.277344 339.554688 C 119.691406 331.183594 83.265625 321.121094 48.203125 315.519531 L 160.296875 55.730469 C 179.441406 65.003906 199.285156 73.933594 218.976562 81.5625 C 254.296875 95.1875 289.761719 109.925781 327.132812 116.183594 C 335.472656 117.558594 343.792969 118.710938 352.3125 119.257812 C 352.5 122.082031 356.160156 176.738281 356.160156 176.738281 L 356.699219 114.179688 " fillOpacity="1" fillRule="nonzero"/></g><path fill="#eb690a" d="M 4.542969 267.277344 L 0 275.230469 L 19.492188 315.628906 L 136.386719 54.640625 L 4.542969 267.277344 " fillOpacity="1" fillRule="nonzero"/><path fill="#eb690a" d="M 131.84375 50.101562 L 0.675781 210.496094 L 15.410156 232.488281 Z M 131.84375 50.101562 " fillOpacity="1" fillRule="nonzero"/><path fill="#eb690a" d="M 251.117188 17.53125 C 254.09375 18.773438 257.183594 21.617188 259.730469 27.082031 C 241.339844 36.222656 224.070312 55.257812 221.425781 58.261719 L 230.800781 62.382812 C 236.933594 55.425781 249.773438 42.042969 262.457031 34.886719 C 265.050781 44.847656 266.292969 59.863281 264.738281 82.191406 L 271.535156 82.746094 C 273.046875 60.996094 272.425781 43.933594 269.304688 31.675781 C 274.207031 29.90625 278.886719 29.472656 282.921875 31.160156 C 290.917969 34.503906 299.773438 49.375 296.542969 95.820312 L 303.335938 96.375 C 306.234375 54.730469 301.320312 30.230469 285.984375 23.820312 C 280.101562 21.363281 273.496094 21.878906 266.808594 24.117188 C 263.867188 17.164062 259.707031 12.503906 254.183594 10.195312 C 229.980469 0.078125 193.566406 40.160156 189.625 44.632812 L 198.996094 48.753906 C 208.667969 37.785156 235.03125 10.796875 251.117188 17.53125 " fillOpacity="1" fillRule="nonzero"/><g fill="#ffffff" fillOpacity="1"><g transform="translate(82.836853, 275.021641)"><g><path d="M 23.941406 1.023438 C 36.0625 1.023438 43.507812 -4.746094 43.507812 -14.378906 C 43.507812 -22.484375 38.175781 -27.300781 25.476562 -30.292969 C 17.664062 -32.117188 14.964844 -34.089844 14.964844 -37.230469 C 14.964844 -40.585938 17.957031 -42.628906 22.847656 -42.628906 C 28.175781 -42.628906 31.390625 -39.855469 31.390625 -35.257812 L 42.558594 -35.257812 C 42.558594 -45.550781 34.820312 -52.121094 22.703125 -52.121094 C 10.949219 -52.121094 3.648438 -46.351562 3.648438 -37.007812 C 3.648438 -28.6875 9.269531 -23.722656 21.242188 -21.167969 C 28.46875 -19.636719 31.753906 -17.519531 31.753906 -13.941406 C 31.753906 -10.511719 28.6875 -8.539062 23.871094 -8.539062 C 18.25 -8.539062 14.597656 -11.386719 14.597656 -16.277344 L 3.210938 -16.277344 C 3.210938 -5.695312 11.09375 1.023438 23.941406 1.023438 Z M 23.941406 1.023438 "/></g></g></g><g fill="#ffffff" fillOpacity="1"><g transform="translate(129.627382, 275.021641)"><g><path d="M 5.546875 0 L 16.644531 0 L 16.644531 -20.148438 C 16.644531 -26.207031 20 -29.855469 25.109375 -29.855469 C 29.855469 -29.855469 32.703125 -26.644531 32.703125 -21.023438 L 32.703125 0 L 43.796875 0 L 43.796875 -22.117188 C 43.796875 -32.777344 37.8125 -39.34375 27.886719 -39.34375 C 23.578125 -39.34375 19.5625 -38.03125 16.644531 -35.402344 L 16.644531 -54.019531 L 5.546875 -54.019531 Z M 5.546875 0 "/></g></g></g><g fill="#ffffff" fillOpacity="1"><g transform="translate(178.242807, 275.021641)"><g><path d="M 24.382812 1.023438 C 37.082031 1.023438 45.84375 -7.226562 45.84375 -19.199219 C 45.84375 -31.097656 37.082031 -39.34375 24.382812 -39.34375 C 11.605469 -39.34375 2.847656 -31.097656 2.847656 -19.199219 C 2.847656 -7.226562 11.605469 1.023438 24.382812 1.023438 Z M 13.796875 -19.199219 C 13.796875 -25.476562 18.175781 -29.855469 24.382812 -29.855469 C 30.585938 -29.855469 34.894531 -25.476562 34.894531 -19.199219 C 34.894531 -12.921875 30.585938 -8.539062 24.382812 -8.539062 C 18.175781 -8.539062 13.796875 -12.921875 13.796875 -19.199219 Z M 13.796875 -19.199219 "/></g></g></g><g fill="#ffffff" fillOpacity="1"><g transform="translate(226.931235, 275.021641)"><g><path d="M 28.761719 1.023438 C 40.222656 1.023438 48.324219 -7.300781 48.324219 -19.199219 C 48.324219 -30.949219 40.222656 -39.34375 28.761719 -39.34375 C 23.214844 -39.34375 18.46875 -37.375 15.039062 -33.945312 L 13.796875 -38.324219 L 5.546875 -38.324219 L 5.546875 14.597656 L 16.644531 14.597656 L 16.644531 -2.992188 C 19.855469 -0.4375 24.015625 1.023438 28.761719 1.023438 Z M 16.207031 -19.199219 C 16.207031 -25.402344 20.585938 -29.855469 26.789062 -29.855469 C 33.066406 -29.855469 37.375 -25.402344 37.375 -19.199219 C 37.375 -12.921875 33.066406 -8.539062 26.789062 -8.539062 C 20.585938 -8.539062 16.207031 -12.921875 16.207031 -19.199219 Z M 16.207031 -19.199219 "/></g></g></g><g fill="#ffffff" fillOpacity="1"><g transform="translate(278.10152, 275.021641)"><g><path d="M 18.394531 0 L 30.003906 0 L 30.003906 -40.222656 L 46.207031 -40.222656 L 46.207031 -51.097656 L 2.191406 -51.097656 L 2.191406 -40.222656 L 18.394531 -40.222656 Z M 18.394531 0 "/></g></g></g><g fill="#ffffff" fillOpacity="1"><g transform="translate(326.497963, 275.021641)"><g><path d="M 18.394531 0 L 30.003906 0 L 30.003906 -40.222656 L 46.207031 -40.222656 L 46.207031 -51.097656 L 2.191406 -51.097656 L 2.191406 -40.222656 L 18.394531 -40.222656 Z M 18.394531 0 "/></g></g></g></svg>