<svg xmlns="http://www.w3.org/2000/svg" xmlnsXlink="http://www.w3.org/1999/xlink" width="500" zoomAndPan="magnify" viewBox="0 0 375 374.999991" height="500" preserveAspectRatio="xMidYMid meet" version="1.0"><defs><g/><clipPath id="e106a34432"><path d="M 84.191406 132.582031 L 136.691406 132.582031 L 136.691406 203.082031 L 84.191406 203.082031 Z M 84.191406 132.582031 " clipRule="nonzero"/></clipPath></defs><g clipPath="url(#e106a34432)"><path fill="#eb690a" d="M 136.246094 162.339844 L 135.046875 151.761719 C 134.832031 149.910156 133.257812 148.5 131.386719 148.5 L 125.425781 148.5 L 125.425781 145.484375 C 125.425781 138.402344 119.664062 132.644531 112.574219 132.644531 C 105.480469 132.644531 99.71875 138.402344 99.71875 145.484375 L 99.71875 148.5 L 93.761719 148.5 C 91.890625 148.5 90.3125 149.910156 90.101562 151.761719 L 84.714844 198.964844 C 84.453125 201.226562 86.226562 203.195312 88.507812 203.195312 L 90.511719 203.195312 C 98.785156 167.730469 125.296875 162.8125 136.246094 162.339844 Z M 123.785156 152.351562 C 124.6875 152.351562 125.425781 153.089844 125.425781 153.992188 C 125.425781 154.894531 124.6875 155.632812 123.785156 155.632812 C 122.882812 155.632812 122.144531 154.894531 122.144531 153.992188 C 122.144531 153.089844 122.882812 152.351562 123.785156 152.351562 Z M 103.003906 145.5 C 103.003906 140.238281 107.289062 135.941406 112.574219 135.941406 C 117.859375 135.941406 122.144531 140.238281 122.144531 145.5 L 122.144531 148.515625 L 103.003906 148.515625 Z M 101.363281 152.351562 C 102.265625 152.351562 103.003906 153.089844 103.003906 153.992188 C 103.003906 154.894531 102.265625 155.632812 101.363281 155.632812 C 100.460938 155.632812 99.71875 154.894531 99.71875 153.992188 C 99.71875 153.089844 100.460938 152.351562 101.363281 152.351562 Z M 101.363281 152.351562 " fillOpacity="1" fillRule="nonzero"/></g><g fill="#545454" fillOpacity="1"><g transform="translate(112.68634, 203.314895)"><g><path d="M 12.203125 0.546875 C 17.875 0.546875 22.566406 -2.308594 22.566406 -8.214844 C 22.566406 -14.355469 17.328125 -15.644531 13.179688 -16.699219 C 10.246094 -17.40625 7.902344 -17.992188 7.902344 -19.910156 C 7.902344 -21.707031 9.816406 -22.527344 11.734375 -22.527344 C 13.964844 -22.527344 15.917969 -21.433594 15.917969 -19.046875 L 21.746094 -19.046875 C 21.746094 -24.523438 18.1875 -27.886719 11.890625 -27.886719 C 5.828125 -27.886719 1.957031 -24.914062 1.957031 -19.671875 C 1.957031 -13.769531 6.960938 -12.554688 11.109375 -11.539062 C 14.082031 -10.875 16.582031 -10.285156 16.582031 -8.136719 C 16.582031 -6.101562 14.394531 -4.929688 12.164062 -4.929688 C 9.738281 -4.929688 7.546875 -6.21875 7.546875 -8.839844 L 1.566406 -8.839844 C 1.566406 -2.972656 5.90625 0.546875 12.203125 0.546875 Z M 12.203125 0.546875 "/></g></g></g><g fill="#545454" fillOpacity="1"><g transform="translate(136.892664, 203.314895)"><g><path d="M 14.824219 -21.589844 C 12.28125 -21.589844 10.050781 -20.652344 8.449219 -19.125 L 8.449219 -28.707031 L 2.738281 -28.707031 L 2.738281 0 L 8.449219 0 L 8.449219 -11.070312 C 8.449219 -14.511719 10.324219 -16.582031 13.179688 -16.582031 C 15.722656 -16.582031 16.859375 -15.019531 16.859375 -11.851562 L 16.859375 0 L 22.566406 0 L 22.566406 -12.828125 C 22.566406 -18.1875 19.59375 -21.589844 14.824219 -21.589844 Z M 14.824219 -21.589844 "/></g></g></g><g fill="#545454" fillOpacity="1"><g transform="translate(161.959309, 203.314895)"><g><path d="M 12.75 0.625 C 19.28125 0.625 24.171875 -4.183594 24.171875 -10.558594 C 24.171875 -16.9375 19.28125 -21.707031 12.75 -21.707031 C 6.21875 -21.707031 1.328125 -16.9375 1.328125 -10.558594 C 1.328125 -4.183594 6.21875 0.625 12.75 0.625 Z M 12.75 -4.773438 C 9.464844 -4.773438 7.117188 -7.117188 7.117188 -10.558594 C 7.117188 -13.964844 9.464844 -16.347656 12.75 -16.347656 C 16.035156 -16.347656 18.382812 -13.964844 18.382812 -10.558594 C 18.382812 -7.117188 16.035156 -4.773438 12.75 -4.773438 Z M 12.75 -4.773438 "/></g></g></g><g fill="#545454" fillOpacity="1"><g transform="translate(187.495219, 203.314895)"><g><path d="M 14.238281 -21.707031 C 11.617188 -21.707031 9.269531 -20.769531 7.46875 -19.164062 L 6.492188 -21.121094 L 2.738281 -21.121094 L 2.738281 7.625 L 8.449219 7.625 L 8.449219 -1.132812 C 10.050781 0 12.046875 0.664062 14.238281 0.664062 C 20.613281 0.664062 25.304688 -4.144531 25.304688 -10.558594 C 25.304688 -16.9375 20.613281 -21.707031 14.238281 -21.707031 Z M 13.769531 -4.773438 C 10.441406 -4.773438 8.019531 -7.234375 8.019531 -10.558594 C 8.019531 -13.847656 10.441406 -16.347656 13.769531 -16.347656 C 17.09375 -16.347656 19.515625 -13.847656 19.515625 -10.558594 C 19.515625 -7.234375 17.09375 -4.773438 13.769531 -4.773438 Z M 13.769531 -4.773438 "/></g></g></g><g fill="#545454" fillOpacity="1"><g transform="translate(214.165192, 203.314895)"><g><path d="M 21.980469 -27.378906 L 0.820312 -27.378906 L 0.820312 -21.863281 L 8.449219 -21.863281 L 8.449219 0 L 14.355469 0 L 14.355469 -21.863281 L 21.980469 -21.863281 Z M 21.980469 -27.378906 "/></g></g></g><g fill="#545454" fillOpacity="1"><g transform="translate(237.002826, 203.314895)"><g><path d="M 21.980469 -27.378906 L 0.820312 -27.378906 L 0.820312 -21.863281 L 8.449219 -21.863281 L 8.449219 0 L 14.355469 0 L 14.355469 -21.863281 L 21.980469 -21.863281 Z M 21.980469 -27.378906 "/></g></g></g></svg>