<svg xmlns="http://www.w3.org/2000/svg" xmlnsXlink="http://www.w3.org/1999/xlink" width="2245" zoomAndPan="magnify" viewBox="0 0 1683.75 1190.250009" height="1587" preserveAspectRatio="xMidYMid meet" version="1.0"><defs><g/><clipPath id="b9560d4bcb"><path d="M 1414 406 L 1683.09375 406 L 1683.09375 700 L 1414 700 Z M 1414 406 " clipRule="nonzero"/></clipPath></defs><g fill="#fffcf5" fillOpacity="1"><g transform="translate(7.935631, 690.88895)"><g><path d="M 270.5625 -43.84375 C 269.320312 -39.84375 267.828125 -36.09375 266.078125 -32.59375 C 264.328125 -29.101562 262.203125 -25.609375 259.703125 -22.109375 C 257.453125 -19.859375 253.453125 -17.109375 247.703125 -13.859375 C 241.960938 -10.617188 235.34375 -7.25 227.84375 -3.75 C 220.351562 -0.25 212.796875 3.1875 205.171875 6.5625 C 197.554688 9.9375 190.875 12.867188 185.125 15.359375 C 179.375 17.859375 175.378906 19.734375 173.140625 20.984375 C 169.390625 21.984375 163.953125 22.796875 156.828125 23.421875 C 149.710938 24.046875 142.59375 24.421875 135.46875 24.546875 C 128.351562 24.671875 122.921875 24.609375 119.171875 24.359375 C 113.671875 23.859375 107.796875 23.234375 101.546875 22.484375 C 95.304688 21.734375 89.3125 20.609375 83.5625 19.109375 C 79.820312 17.359375 74.328125 14.796875 67.078125 11.421875 C 59.835938 8.054688 52.59375 4.375 45.34375 0.375 C 38.101562 -3.625 32.609375 -7.5 28.859375 -11.25 C 23.109375 -17.488281 18.484375 -24.609375 14.984375 -32.609375 C 12.492188 -38.347656 10.6875 -44.648438 9.5625 -51.515625 C 8.4375 -58.390625 7.125 -64.578125 5.625 -70.078125 C 4.625 -74.078125 3.6875 -78.007812 2.8125 -81.875 C 1.9375 -85.75 2 -89.6875 3 -93.6875 C 3 -94.9375 3.25 -96.3125 3.75 -97.8125 C 4 -98.3125 4.375 -98.8125 4.875 -99.3125 C 5.375 -99.8125 5.75 -100.1875 6 -100.4375 C 6.5 -100.9375 7.0625 -101.625 7.6875 -102.5 C 8.3125 -103.375 8.875 -103.9375 9.375 -104.1875 C 10.625 -105.175781 12.179688 -105.921875 14.046875 -106.421875 C 15.921875 -106.921875 17.609375 -107.421875 19.109375 -107.921875 C 19.609375 -108.421875 20.546875 -108.859375 21.921875 -109.234375 C 23.296875 -109.609375 24.109375 -110.046875 24.359375 -110.546875 C 24.609375 -110.796875 24.734375 -111.421875 24.734375 -112.421875 C 25.234375 -113.421875 25.609375 -114.421875 25.859375 -115.421875 C 26.109375 -116.421875 26.234375 -117.421875 26.234375 -118.421875 C 26.234375 -119.421875 25.984375 -120.546875 25.484375 -121.796875 C 24.984375 -123.046875 24.484375 -124.171875 23.984375 -125.171875 C 21.734375 -130.660156 19.859375 -136.03125 18.359375 -141.28125 C 17.359375 -144.78125 16.546875 -148.335938 15.921875 -151.953125 C 15.296875 -155.578125 14.484375 -159.015625 13.484375 -162.265625 C 12.484375 -166.765625 11.359375 -171.320312 10.109375 -175.9375 C 8.867188 -180.5625 8 -185.25 7.5 -190 C 6.75 -195.75 6.6875 -202.492188 7.3125 -210.234375 C 7.9375 -217.984375 9.492188 -224.601562 11.984375 -230.09375 C 14.484375 -232.84375 18.421875 -236.648438 23.796875 -241.515625 C 29.171875 -246.390625 34.976562 -251.515625 41.21875 -256.890625 C 47.46875 -262.265625 53.398438 -267.195312 59.015625 -271.6875 C 64.640625 -276.1875 68.828125 -279.5625 71.578125 -281.8125 C 77.328125 -284.0625 84.132812 -285.75 92 -286.875 C 99.875 -288 106.554688 -288.6875 112.046875 -288.9375 C 114.296875 -289.1875 118.789062 -288.6875 125.53125 -287.4375 C 132.28125 -286.1875 140.023438 -284.4375 148.765625 -282.1875 C 157.515625 -279.9375 166.257812 -277.4375 175 -274.6875 C 183.75 -271.9375 191.492188 -269.1875 198.234375 -266.4375 C 204.984375 -263.695312 209.484375 -261.203125 211.734375 -258.953125 C 214.734375 -256.203125 217.601562 -253.265625 220.34375 -250.140625 C 223.09375 -247.023438 225.59375 -243.71875 227.84375 -240.21875 C 230.09375 -236.71875 232.15625 -233.03125 234.03125 -229.15625 C 235.90625 -225.28125 238.09375 -221.597656 240.59375 -218.109375 C 242.59375 -215.609375 244.648438 -213.046875 246.765625 -210.421875 C 248.890625 -207.796875 250.828125 -205.109375 252.578125 -202.359375 C 254.828125 -199.117188 257.015625 -195.6875 259.140625 -192.0625 C 261.265625 -188.4375 262.453125 -184.625 262.703125 -180.625 C 262.953125 -179.625 263.140625 -178.6875 263.265625 -177.8125 C 263.390625 -176.9375 263.453125 -176.128906 263.453125 -175.390625 C 263.203125 -174.390625 262.890625 -173.390625 262.515625 -172.390625 C 262.140625 -171.390625 261.828125 -170.515625 261.578125 -169.765625 C 261.328125 -169.515625 261.203125 -169.203125 261.203125 -168.828125 C 261.203125 -168.453125 261.078125 -168.140625 260.828125 -167.890625 C 260.078125 -167.140625 259.203125 -166.515625 258.203125 -166.015625 C 257.453125 -165.515625 256.765625 -165.015625 256.140625 -164.515625 C 255.515625 -164.015625 254.828125 -163.515625 254.078125 -163.015625 C 252.828125 -162.515625 251.515625 -162.140625 250.140625 -161.890625 C 248.765625 -161.640625 247.453125 -161.140625 246.203125 -160.390625 C 245.710938 -160.140625 245.21875 -159.765625 244.71875 -159.265625 C 244.21875 -158.765625 243.71875 -158.265625 243.21875 -157.765625 C 242.96875 -157.515625 242.46875 -157.140625 241.71875 -156.640625 C 240.96875 -156.140625 240.34375 -155.640625 239.84375 -155.140625 C 239.59375 -154.640625 239.46875 -153.953125 239.46875 -153.078125 C 239.46875 -152.210938 239.46875 -151.53125 239.46875 -151.03125 L 239.09375 -146.90625 C 239.34375 -145.15625 239.96875 -143.34375 240.96875 -141.46875 C 241.96875 -139.59375 242.84375 -137.78125 243.59375 -136.03125 C 246.332031 -131.53125 249.265625 -127.21875 252.390625 -123.09375 C 255.515625 -118.976562 258.578125 -114.796875 261.578125 -110.546875 C 264.328125 -107.796875 266.695312 -103.359375 268.6875 -97.234375 C 270.6875 -91.117188 272.125 -84.5 273 -77.375 C 273.875 -70.257812 274.1875 -63.640625 273.9375 -57.515625 C 273.6875 -51.398438 272.5625 -46.84375 270.5625 -43.84375 Z M 228.59375 -224.46875 C 226.09375 -227.46875 223.40625 -230.34375 220.53125 -233.09375 C 217.664062 -235.84375 214.484375 -238.46875 210.984375 -240.96875 C 208.734375 -243.21875 203.359375 -245.648438 194.859375 -248.265625 C 186.367188 -250.890625 176.441406 -253.390625 165.078125 -255.765625 C 153.710938 -258.140625 142.34375 -260.078125 130.96875 -261.578125 C 119.601562 -263.078125 109.671875 -263.828125 101.171875 -263.828125 C 92.679688 -263.828125 87.3125 -262.703125 85.0625 -260.453125 C 82.320312 -258.453125 77.703125 -254.828125 71.203125 -249.578125 C 64.703125 -244.335938 57.640625 -238.46875 50.015625 -231.96875 C 42.398438 -225.476562 35.46875 -219.359375 29.21875 -213.609375 C 22.976562 -207.859375 18.734375 -203.609375 16.484375 -200.859375 C 15.484375 -197.367188 14.796875 -193.75 14.421875 -190 C 14.046875 -186.25 13.859375 -182.5 13.859375 -178.75 C 13.859375 -176.007812 14.046875 -173.265625 14.421875 -170.515625 C 14.796875 -167.765625 15.234375 -165.015625 15.734375 -162.265625 C 16.484375 -158.015625 17.859375 -153.644531 19.859375 -149.15625 C 22.609375 -146.40625 27.289062 -142.65625 33.90625 -137.90625 C 40.53125 -133.15625 47.773438 -128.21875 55.640625 -123.09375 C 63.515625 -117.976562 70.757812 -113.421875 77.375 -109.421875 C 84 -105.429688 88.6875 -102.6875 91.4375 -101.1875 C 95.1875 -100.1875 99.929688 -99.25 105.671875 -98.375 C 111.421875 -97.5 117.101562 -96.625 122.71875 -95.75 C 128.34375 -94.875 133.03125 -93.8125 136.78125 -92.5625 C 138.03125 -92.3125 139.15625 -91.9375 140.15625 -91.4375 C 141.15625 -90.9375 142.15625 -90.4375 143.15625 -89.9375 C 143.65625 -89.6875 144.21875 -89.5 144.84375 -89.375 C 145.46875 -89.25 145.90625 -88.9375 146.15625 -88.4375 C 146.65625 -88.1875 147.09375 -87.625 147.46875 -86.75 C 147.84375 -85.875 148.15625 -85.1875 148.40625 -84.6875 C 148.40625 -84.4375 148.65625 -84 149.15625 -83.375 C 149.65625 -82.75 149.90625 -82.3125 149.90625 -82.0625 C 149.90625 -81.070312 149.40625 -80.078125 148.40625 -79.078125 C 148.15625 -78.578125 147.90625 -77.890625 147.65625 -77.015625 C 147.40625 -76.140625 147.03125 -75.453125 146.53125 -74.953125 C 146.28125 -74.703125 145.71875 -74.390625 144.84375 -74.015625 C 143.96875 -73.640625 143.28125 -73.328125 142.78125 -73.078125 C 139.03125 -71.328125 135.09375 -70.515625 130.96875 -70.640625 C 126.851562 -70.765625 122.796875 -71.203125 118.796875 -71.953125 C 114.046875 -73.203125 109.546875 -74.828125 105.296875 -76.828125 C 101.054688 -78.828125 96.5625 -80.328125 91.8125 -81.328125 C 88.0625 -82.816406 83.0625 -83.75 76.8125 -84.125 C 70.570312 -84.5 64.328125 -84.625 58.078125 -84.5 C 51.835938 -84.375 46.84375 -84.3125 43.09375 -84.3125 C 40.09375 -84.3125 37.03125 -84.25 33.90625 -84.125 C 30.789062 -84 27.859375 -83.6875 25.109375 -83.1875 L 20.234375 -82.0625 C 14.734375 -79.570312 11.363281 -75.578125 10.125 -70.078125 C 9.875 -69.578125 9.8125 -68.953125 9.9375 -68.203125 C 10.0625 -67.453125 10.125 -66.828125 10.125 -66.328125 C 10.125 -61.328125 11.242188 -56.582031 13.484375 -52.09375 C 14.484375 -49.84375 15.546875 -47.59375 16.671875 -45.34375 C 17.796875 -43.09375 19.109375 -40.96875 20.609375 -38.96875 C 24.359375 -35.226562 29.601562 -31.109375 36.34375 -26.609375 C 43.09375 -22.109375 49.773438 -17.859375 56.390625 -13.859375 C 63.015625 -9.867188 68.203125 -6.75 71.953125 -4.5 C 77.453125 -2.75 83.007812 -1.375 88.625 -0.375 C 94.25 0.625 99.8125 1.5 105.3125 2.25 C 114.050781 3 122.664062 3.375 131.15625 3.375 C 138.15625 3.375 145.398438 3 152.890625 2.25 C 155.140625 1.25 159.507812 -1.1875 166 -5.0625 C 172.5 -8.9375 179.992188 -13.554688 188.484375 -18.921875 C 196.984375 -24.296875 205.539062 -29.851562 214.15625 -35.59375 C 222.78125 -41.34375 230.335938 -46.53125 236.828125 -51.15625 C 243.328125 -55.78125 247.703125 -59.210938 249.953125 -61.453125 C 251.953125 -64.203125 252.703125 -69.132812 252.203125 -76.25 C 251.703125 -83.375 250.453125 -91.117188 248.453125 -99.484375 C 246.460938 -107.859375 243.96875 -115.601562 240.96875 -122.71875 C 237.96875 -129.84375 235.09375 -134.78125 232.34375 -137.53125 C 227.34375 -142.28125 221.59375 -146.085938 215.09375 -148.953125 C 208.601562 -151.828125 202.488281 -154.390625 196.75 -156.640625 C 193 -158.390625 188.375 -159.765625 182.875 -160.765625 C 177.382812 -161.765625 171.828125 -162.703125 166.203125 -163.578125 C 160.578125 -164.453125 155.894531 -165.265625 152.15625 -166.015625 C 148.40625 -166.515625 144.59375 -167.140625 140.71875 -167.890625 C 136.84375 -168.640625 133.15625 -169.515625 129.65625 -170.515625 C 128.664062 -171.015625 127.484375 -171.515625 126.109375 -172.015625 C 124.734375 -172.515625 123.546875 -173.140625 122.546875 -173.890625 C 122.046875 -174.390625 121.609375 -174.945312 121.234375 -175.5625 C 120.859375 -176.1875 120.421875 -176.625 119.921875 -176.875 C 119.671875 -177.375 119.234375 -177.9375 118.609375 -178.5625 C 117.984375 -179.1875 117.546875 -179.625 117.296875 -179.875 C 117.046875 -180.375 117.046875 -181.0625 117.296875 -181.9375 C 117.546875 -182.8125 117.796875 -183.5 118.046875 -184 C 118.046875 -184.5 118.046875 -185.125 118.046875 -185.875 C 118.046875 -186.625 118.171875 -187.125 118.421875 -187.375 C 118.671875 -187.625 119.109375 -187.875 119.734375 -188.125 C 120.359375 -188.375 120.796875 -188.625 121.046875 -188.875 C 123.046875 -190.125 125.296875 -190.875 127.796875 -191.125 L 133.03125 -191.125 C 136.03125 -190.875 138.96875 -190.125 141.84375 -188.875 C 144.71875 -187.625 147.53125 -186.375 150.28125 -185.125 C 155.519531 -183.125 160.953125 -181.875 166.578125 -181.375 C 172.203125 -180.875 177.757812 -180.5 183.25 -180.25 L 211.359375 -180.25 C 214.609375 -180.25 217.914062 -180.3125 221.28125 -180.4375 C 224.65625 -180.5625 227.96875 -181.125 231.21875 -182.125 C 231.96875 -182.375 232.78125 -182.625 233.65625 -182.875 C 234.53125 -183.125 235.21875 -183.375 235.71875 -183.625 C 236.21875 -184.125 236.71875 -184.6875 237.21875 -185.3125 C 237.71875 -185.9375 238.09375 -186.375 238.34375 -186.625 C 238.84375 -187.125 239.34375 -187.625 239.84375 -188.125 C 240.34375 -188.625 240.71875 -189.125 240.96875 -189.625 C 241.21875 -190.125 241.34375 -190.75 241.34375 -191.5 C 241.34375 -192.25 241.46875 -192.875 241.71875 -193.375 C 241.71875 -194.125 241.78125 -194.875 241.90625 -195.625 C 242.03125 -196.375 242.09375 -197 242.09375 -197.5 C 242.09375 -198.25 241.96875 -198.992188 241.71875 -199.734375 C 241.46875 -200.484375 241.34375 -201.109375 241.34375 -201.609375 C 239.84375 -207.109375 237.34375 -212.484375 233.84375 -217.734375 C 232.59375 -219.734375 230.84375 -221.976562 228.59375 -224.46875 Z M 228.59375 -224.46875 "/></g></g></g><g fill="#fffcf5" fillOpacity="1"><g transform="translate(269.135138, 690.88895)"><g><path d="M 88.8125 17.609375 C 83.320312 18.109375 77.203125 18.296875 70.453125 18.171875 C 63.703125 18.046875 57.457031 17.984375 51.71875 17.984375 C 48.21875 17.984375 44.59375 17.984375 40.84375 17.984375 C 37.09375 17.984375 33.472656 17.609375 29.984375 16.859375 C 29.234375 16.609375 28.359375 16.421875 27.359375 16.296875 C 26.359375 16.171875 25.484375 15.984375 24.734375 15.734375 C 20.734375 13.734375 17.859375 10.796875 16.109375 6.921875 C 14.359375 3.054688 13.359375 -0.875 13.109375 -4.875 C 12.859375 -8.375 12.734375 -11.929688 12.734375 -15.546875 C 12.734375 -19.171875 12.609375 -22.734375 12.359375 -26.234375 L 12.359375 -199.359375 C 12.359375 -203.109375 12.359375 -207.976562 12.359375 -213.96875 C 12.359375 -219.96875 12.359375 -225.90625 12.359375 -231.78125 C 12.359375 -237.65625 12.359375 -242.460938 12.359375 -246.203125 C 12.359375 -248.703125 12.359375 -251.265625 12.359375 -253.890625 C 12.359375 -256.515625 12.734375 -258.953125 13.484375 -261.203125 C 13.734375 -261.703125 14.046875 -262.328125 14.421875 -263.078125 C 14.796875 -263.828125 15.109375 -264.453125 15.359375 -264.953125 C 15.859375 -265.453125 16.234375 -266.078125 16.484375 -266.828125 C 16.734375 -267.578125 16.984375 -268.078125 17.234375 -268.328125 C 17.734375 -268.828125 18.296875 -269.320312 18.921875 -269.8125 C 19.546875 -270.3125 20.109375 -270.6875 20.609375 -270.9375 C 21.109375 -271.4375 21.671875 -271.875 22.296875 -272.25 C 22.921875 -272.625 23.484375 -272.9375 23.984375 -273.1875 C 26.484375 -274.4375 29.226562 -275.1875 32.21875 -275.4375 C 35.21875 -275.6875 38.09375 -275.8125 40.84375 -275.8125 L 76.828125 -275.8125 C 81.066406 -275.8125 85.5625 -275.6875 90.3125 -275.4375 C 95.0625 -275.1875 99.4375 -274.4375 103.4375 -273.1875 C 107.675781 -271.9375 111.234375 -270.0625 114.109375 -267.5625 C 116.984375 -265.070312 119.921875 -262.328125 122.921875 -259.328125 C 124.921875 -257.578125 127.039062 -255.828125 129.28125 -254.078125 C 131.53125 -252.328125 133.53125 -250.453125 135.28125 -248.453125 C 137.03125 -246.460938 138.53125 -244.28125 139.78125 -241.90625 C 141.03125 -239.53125 141.78125 -236.96875 142.03125 -234.21875 C 142.78125 -230.71875 143.15625 -227.09375 143.15625 -223.34375 C 143.15625 -219.601562 143.15625 -215.984375 143.15625 -212.484375 C 143.15625 -210.484375 143.21875 -208.421875 143.34375 -206.296875 C 143.46875 -204.171875 143.90625 -202.234375 144.65625 -200.484375 C 145.15625 -199.734375 145.59375 -198.734375 145.96875 -197.484375 C 146.34375 -196.242188 146.78125 -195.375 147.28125 -194.875 C 147.78125 -194.375 148.40625 -193.9375 149.15625 -193.5625 C 149.90625 -193.1875 150.53125 -192.875 151.03125 -192.625 C 151.28125 -192.375 151.710938 -192 152.328125 -191.5 C 152.953125 -191 153.390625 -190.75 153.640625 -190.75 C 154.640625 -190.75 155.890625 -191.125 157.390625 -191.875 C 157.890625 -192.125 158.578125 -192.3125 159.453125 -192.4375 C 160.328125 -192.5625 160.890625 -192.75 161.140625 -193 C 161.640625 -193.5 162.078125 -194.125 162.453125 -194.875 C 162.828125 -195.625 163.140625 -196.25 163.390625 -196.75 C 163.890625 -197.25 164.328125 -197.804688 164.703125 -198.421875 C 165.078125 -199.046875 165.390625 -199.734375 165.640625 -200.484375 C 166.140625 -201.984375 166.453125 -203.734375 166.578125 -205.734375 C 166.703125 -207.734375 166.765625 -209.609375 166.765625 -211.359375 C 166.765625 -217.109375 166.703125 -224.039062 166.578125 -232.15625 C 166.453125 -240.28125 166.640625 -247.085938 167.140625 -252.578125 C 167.390625 -254.578125 167.703125 -256.640625 168.078125 -258.765625 C 168.453125 -260.890625 169.140625 -262.828125 170.140625 -264.578125 C 171.390625 -266.828125 173.132812 -268.757812 175.375 -270.375 C 177.625 -272 180 -273.3125 182.5 -274.3125 C 184.5 -274.8125 186.5 -275.125 188.5 -275.25 C 190.5 -275.375 192.5 -275.4375 194.5 -275.4375 C 197.988281 -275.6875 201.484375 -275.8125 204.984375 -275.8125 C 208.484375 -275.8125 211.984375 -275.8125 215.484375 -275.8125 C 219.984375 -275.8125 224.476562 -275.8125 228.96875 -275.8125 C 233.46875 -275.8125 237.96875 -275.6875 242.46875 -275.4375 C 245.707031 -275.1875 248.953125 -274.75 252.203125 -274.125 C 255.453125 -273.5 258.578125 -272.5625 261.578125 -271.3125 C 265.328125 -269.570312 268.757812 -267.328125 271.875 -264.578125 C 275 -261.828125 277.9375 -259.078125 280.6875 -256.328125 C 282.6875 -254.578125 284.75 -252.765625 286.875 -250.890625 C 289 -249.015625 290.8125 -246.957031 292.3125 -244.71875 C 294.300781 -241.71875 295.609375 -238.46875 296.234375 -234.96875 C 296.859375 -231.46875 297.296875 -227.96875 297.546875 -224.46875 L 297.546875 -23.609375 C 297.546875 -20.609375 297.484375 -17.609375 297.359375 -14.609375 C 297.234375 -11.617188 296.921875 -8.625 296.421875 -5.625 C 296.171875 -4.875 296.046875 -4.125 296.046875 -3.375 C 296.046875 -2.625 295.796875 -2 295.296875 -1.5 C 295.046875 -0.5 294.421875 0.75 293.421875 2.25 C 292.429688 3.75 291.5625 4.875 290.8125 5.625 C 290.0625 6.375 288.9375 7 287.4375 7.5 C 284.1875 9.25 280.8125 10.429688 277.3125 11.046875 C 273.8125 11.671875 270.316406 12.234375 266.828125 12.734375 C 263.078125 13.484375 259.328125 14.296875 255.578125 15.171875 C 251.828125 16.046875 247.957031 16.734375 243.96875 17.234375 C 238.46875 17.984375 232.59375 18.296875 226.34375 18.171875 C 220.101562 18.046875 214.109375 17.984375 208.359375 17.984375 C 204.359375 17.984375 200.421875 17.984375 196.546875 17.984375 C 192.679688 17.984375 188.875 17.609375 185.125 16.859375 C 184.375 16.609375 183.5 16.359375 182.5 16.109375 C 181.5 15.859375 180.625 15.609375 179.875 15.359375 C 174.632812 13.109375 171.015625 9.488281 169.015625 4.5 C 168.265625 2.5 167.828125 0.4375 167.703125 -1.6875 C 167.578125 -3.8125 167.390625 -5.75 167.140625 -7.5 C 166.890625 -13.238281 166.828125 -20.039062 166.953125 -27.90625 C 167.078125 -35.78125 166.890625 -42.46875 166.390625 -47.96875 C 166.390625 -49.96875 166.328125 -52.09375 166.203125 -54.34375 C 166.078125 -56.59375 165.640625 -58.585938 164.890625 -60.328125 C 164.640625 -60.828125 164.265625 -61.390625 163.765625 -62.015625 C 163.265625 -62.640625 162.765625 -63.078125 162.265625 -63.328125 C 161.765625 -64.828125 161.015625 -65.953125 160.015625 -66.703125 C 159.765625 -67.203125 159.140625 -67.453125 158.140625 -67.453125 C 157.140625 -67.453125 156.390625 -67.453125 155.890625 -67.453125 C 154.890625 -67.953125 153.890625 -68.203125 152.890625 -68.203125 C 152.640625 -67.953125 152.265625 -67.640625 151.765625 -67.265625 C 151.273438 -66.890625 150.78125 -66.578125 150.28125 -66.328125 C 149.78125 -66.078125 149.21875 -65.703125 148.59375 -65.203125 C 147.96875 -64.703125 147.40625 -64.203125 146.90625 -63.703125 C 146.65625 -63.453125 146.40625 -62.890625 146.15625 -62.015625 C 145.90625 -61.140625 145.65625 -60.453125 145.40625 -59.953125 C 144.65625 -58.210938 144.15625 -56.34375 143.90625 -54.34375 C 143.65625 -52.34375 143.40625 -50.34375 143.15625 -48.34375 C 142.90625 -42.84375 142.90625 -36.90625 143.15625 -30.53125 C 143.40625 -24.164062 143.28125 -18.109375 142.78125 -12.359375 C 142.53125 -9.867188 142.15625 -7.3125 141.65625 -4.6875 C 141.15625 -2.0625 140.03125 0.375 138.28125 2.625 C 138.03125 2.875 137.71875 3.3125 137.34375 3.9375 C 136.96875 4.5625 136.53125 5.125 136.03125 5.625 C 135.78125 6.125 135.21875 6.5 134.34375 6.75 C 133.46875 7 132.78125 7.375 132.28125 7.875 C 128.789062 9.625 125.109375 10.804688 121.234375 11.421875 C 117.359375 12.046875 113.421875 12.734375 109.421875 13.484375 C 106.179688 14.234375 102.8125 14.984375 99.3125 15.734375 C 95.8125 16.484375 92.3125 17.109375 88.8125 17.609375 Z M 227.09375 0 C 231.34375 0 235.710938 0 240.203125 0 C 244.703125 0 248.953125 -0.5 252.953125 -1.5 C 253.703125 -2 254.515625 -2.3125 255.390625 -2.4375 C 256.265625 -2.5625 257.078125 -2.75 257.828125 -3 C 258.328125 -3.5 258.890625 -4.0625 259.515625 -4.6875 C 260.140625 -5.3125 260.578125 -5.75 260.828125 -6 C 262.578125 -7 263.703125 -8 264.203125 -9 C 264.703125 -9.5 265.015625 -10.117188 265.140625 -10.859375 C 265.265625 -11.609375 265.453125 -12.234375 265.703125 -12.734375 C 266.953125 -15.234375 267.703125 -17.796875 267.953125 -20.421875 C 268.203125 -23.046875 268.453125 -25.734375 268.703125 -28.484375 L 268.703125 -199.359375 C 268.703125 -205.109375 268.765625 -211.289062 268.890625 -217.90625 C 269.015625 -224.53125 268.828125 -230.59375 268.328125 -236.09375 C 268.328125 -238.84375 268.078125 -241.523438 267.578125 -244.140625 C 267.078125 -246.765625 266.203125 -249.328125 264.953125 -251.828125 C 264.453125 -253.328125 263.828125 -254.453125 263.078125 -255.203125 C 262.328125 -256.203125 261.203125 -256.953125 259.703125 -257.453125 L 256.328125 -260.078125 C 255.828125 -260.328125 255.140625 -260.515625 254.265625 -260.640625 C 253.390625 -260.765625 252.578125 -260.953125 251.828125 -261.203125 C 248.078125 -261.953125 244.265625 -262.328125 240.390625 -262.328125 C 236.523438 -262.328125 232.71875 -262.328125 228.96875 -262.328125 C 223.476562 -262.328125 218.109375 -262.390625 212.859375 -262.515625 C 207.609375 -262.640625 202.238281 -262.453125 196.75 -261.953125 C 195 -261.703125 193 -261.453125 190.75 -261.203125 C 188.5 -260.953125 186.625 -260.328125 185.125 -259.328125 C 184.375 -259.078125 183.625 -258.578125 182.875 -257.828125 C 182.125 -257.078125 181.5 -256.453125 181 -255.953125 C 180.75 -255.703125 180.375 -255.390625 179.875 -255.015625 C 179.375 -254.640625 179 -254.203125 178.75 -253.703125 C 178.5 -253.203125 178.25 -252.578125 178 -251.828125 C 177.75 -251.078125 177.5 -250.453125 177.25 -249.953125 C 176.5 -247.453125 176 -245.015625 175.75 -242.640625 C 175.507812 -240.273438 175.265625 -237.84375 175.015625 -235.34375 L 175.015625 -199.359375 C 175.015625 -197.117188 174.890625 -194.875 174.640625 -192.625 C 174.390625 -190.375 174.015625 -188.25 173.515625 -186.25 C 173.265625 -185.75 173.140625 -185.0625 173.140625 -184.1875 C 173.140625 -183.3125 172.890625 -182.625 172.390625 -182.125 C 172.140625 -181.625 171.703125 -181.125 171.078125 -180.625 C 170.453125 -180.125 169.890625 -179.625 169.390625 -179.125 C 168.390625 -177.375 167.390625 -176.25 166.390625 -175.75 C 165.390625 -175.257812 164.140625 -175.015625 162.640625 -175.015625 C 159.390625 -174.015625 155.394531 -173.515625 150.65625 -173.515625 C 147.65625 -173.515625 144.53125 -173.515625 141.28125 -173.515625 C 138.03125 -173.515625 134.90625 -173.640625 131.90625 -173.890625 C 130.90625 -174.140625 129.96875 -174.265625 129.09375 -174.265625 C 128.226562 -174.265625 127.421875 -174.390625 126.671875 -174.640625 C 125.921875 -174.890625 125.171875 -175.257812 124.421875 -175.75 C 123.671875 -176.25 123.046875 -176.625 122.546875 -176.875 C 122.296875 -177.125 121.859375 -177.375 121.234375 -177.625 C 120.609375 -177.875 120.171875 -178.125 119.921875 -178.375 C 118.921875 -179.375 118.171875 -180.625 117.671875 -182.125 C 117.421875 -182.875 117.046875 -183.5625 116.546875 -184.1875 C 116.046875 -184.8125 115.671875 -185.5 115.421875 -186.25 C 114.921875 -188.25 114.609375 -190.375 114.484375 -192.625 C 114.359375 -194.875 114.296875 -197 114.296875 -199 C 114.296875 -204.738281 114.359375 -211.289062 114.484375 -218.65625 C 114.609375 -226.03125 114.421875 -232.46875 113.921875 -237.96875 C 113.921875 -243.457031 112.671875 -248.578125 110.171875 -253.328125 C 109.921875 -253.828125 109.609375 -254.453125 109.234375 -255.203125 C 108.859375 -255.953125 108.421875 -256.453125 107.921875 -256.703125 C 107.671875 -257.203125 107.109375 -257.640625 106.234375 -258.015625 C 105.367188 -258.390625 104.6875 -258.703125 104.1875 -258.953125 C 101.9375 -260.203125 99.5 -261.015625 96.875 -261.390625 C 94.25 -261.765625 91.5625 -262.078125 88.8125 -262.328125 L 56.59375 -262.328125 C 53.34375 -262.328125 50.03125 -262.328125 46.65625 -262.328125 C 43.28125 -262.328125 39.96875 -262.078125 36.71875 -261.578125 C 35.71875 -261.328125 34.46875 -260.953125 32.96875 -260.453125 C 31.476562 -259.953125 30.234375 -259.453125 29.234375 -258.953125 C 28.484375 -258.453125 27.546875 -257.578125 26.421875 -256.328125 C 25.296875 -255.078125 24.484375 -253.953125 23.984375 -252.953125 C 23.484375 -252.453125 23.171875 -251.703125 23.046875 -250.703125 C 22.921875 -249.703125 22.609375 -248.953125 22.109375 -248.453125 C 20.609375 -243.710938 19.984375 -238.71875 20.234375 -233.46875 C 20.484375 -228.21875 20.609375 -223.222656 20.609375 -218.484375 L 20.609375 -60.703125 C 20.609375 -55.210938 20.609375 -49.28125 20.609375 -42.90625 C 20.609375 -36.539062 20.734375 -30.484375 20.984375 -24.734375 C 20.984375 -21.984375 21.234375 -19.359375 21.734375 -16.859375 C 22.234375 -14.359375 23.109375 -11.863281 24.359375 -9.375 C 24.859375 -8.875 25.234375 -8.25 25.484375 -7.5 C 25.734375 -6.75 26.109375 -6.125 26.609375 -5.625 C 26.859375 -5.375 27.296875 -5.125 27.921875 -4.875 C 28.546875 -4.625 28.984375 -4.375 29.234375 -4.125 C 29.734375 -3.875 30.359375 -3.5 31.109375 -3 C 31.859375 -2.5 32.609375 -2 33.359375 -1.5 C 34.109375 -1.25 34.851562 -1.125 35.59375 -1.125 C 36.34375 -1.125 37.09375 -1 37.84375 -0.75 C 41.34375 -0.25 44.96875 0 48.71875 0 C 52.46875 0 56.210938 0 59.953125 0 C 65.703125 0 71.445312 0.0625 77.1875 0.1875 C 82.9375 0.3125 88.5625 0 94.0625 -0.75 C 97.3125 -1 100.492188 -1.875 103.609375 -3.375 C 106.734375 -4.875 109.171875 -7.125 110.921875 -10.125 C 111.421875 -10.625 111.671875 -11.179688 111.671875 -11.796875 C 111.671875 -12.421875 111.796875 -12.859375 112.046875 -13.109375 C 113.046875 -15.859375 113.671875 -18.484375 113.921875 -20.984375 C 114.171875 -23.484375 114.296875 -25.984375 114.296875 -28.484375 C 114.296875 -34.222656 114.296875 -41.148438 114.296875 -49.265625 C 114.296875 -57.390625 114.421875 -64.203125 114.671875 -69.703125 C 114.921875 -71.453125 115.171875 -73.390625 115.421875 -75.515625 C 115.671875 -77.640625 116.171875 -79.578125 116.921875 -81.328125 C 117.421875 -81.816406 117.984375 -82.375 118.609375 -83 C 119.234375 -83.625 119.796875 -84.3125 120.296875 -85.0625 L 122.171875 -87.3125 C 122.671875 -87.5625 123.296875 -87.8125 124.046875 -88.0625 C 124.796875 -88.3125 125.421875 -88.5625 125.921875 -88.8125 C 127.910156 -89.5625 129.90625 -90.0625 131.90625 -90.3125 C 133.90625 -90.5625 135.90625 -90.8125 137.90625 -91.0625 C 140.65625 -91.0625 143.53125 -91.125 146.53125 -91.25 C 149.53125 -91.375 152.273438 -91.1875 154.765625 -90.6875 C 156.015625 -90.4375 157.203125 -90.3125 158.328125 -90.3125 C 159.453125 -90.3125 160.515625 -90.0625 161.515625 -89.5625 C 162.265625 -89.3125 163.015625 -89 163.765625 -88.625 C 164.515625 -88.25 165.265625 -87.8125 166.015625 -87.3125 C 166.515625 -87.0625 167.015625 -86.875 167.515625 -86.75 C 168.015625 -86.625 168.390625 -86.3125 168.640625 -85.8125 C 169.140625 -85.5625 169.578125 -85 169.953125 -84.125 C 170.328125 -83.25 170.640625 -82.5625 170.890625 -82.0625 C 172.140625 -81.070312 172.890625 -79.953125 173.140625 -78.703125 C 173.890625 -76.953125 174.328125 -75.015625 174.453125 -72.890625 C 174.578125 -70.765625 174.765625 -68.703125 175.015625 -66.703125 C 175.265625 -61.210938 175.265625 -54.78125 175.015625 -47.40625 C 174.765625 -40.03125 174.765625 -33.472656 175.015625 -27.734375 C 175.265625 -24.984375 175.570312 -22.234375 175.9375 -19.484375 C 176.3125 -16.734375 177.125 -13.988281 178.375 -11.25 C 178.875 -10.75 179.25 -10.125 179.5 -9.375 C 179.75 -8.625 180 -8 180.25 -7.5 C 182.25 -5 184.9375 -3.25 188.3125 -2.25 C 191.6875 -1.25 195 -0.625 198.25 -0.375 C 202.738281 -0.125 207.359375 0 212.109375 0 C 216.859375 0 221.851562 0 227.09375 0 Z M 227.09375 0 "/></g></g></g><g fill="#fffcf5" fillOpacity="1"><g transform="translate(558.440748, 690.88895)"><g><path d="M 292.671875 -80.578125 C 291.929688 -75.078125 290.6875 -68.640625 288.9375 -61.265625 C 287.1875 -53.898438 284.6875 -47.34375 281.4375 -41.59375 C 279.9375 -39.09375 278.3125 -36.46875 276.5625 -33.71875 C 274.8125 -30.976562 272.9375 -28.484375 270.9375 -26.234375 C 268.445312 -23.484375 265.828125 -20.796875 263.078125 -18.171875 C 260.328125 -15.546875 257.328125 -13.113281 254.078125 -10.875 C 251.828125 -8.625 247.828125 -6.375 242.078125 -4.125 C 236.335938 -1.875 229.78125 0.25 222.40625 2.25 C 215.039062 4.25 207.671875 6 200.296875 7.5 C 192.929688 9 186.375 10.179688 180.625 11.046875 C 174.882812 11.921875 170.890625 12.359375 168.640625 12.359375 C 163.140625 12.359375 156.390625 12.046875 148.390625 11.421875 C 140.398438 10.804688 133.535156 9.75 127.796875 8.25 C 126.046875 7.75 124.359375 7.3125 122.734375 6.9375 C 121.109375 6.5625 119.421875 6.125 117.671875 5.625 C 117.421875 5.375 116.984375 5.1875 116.359375 5.0625 C 115.734375 4.9375 115.171875 4.75 114.671875 4.5 L 114.296875 1.875 C 114.796875 1.625 115.546875 1.625 116.546875 1.875 C 117.546875 2.125 118.171875 2.25 118.421875 2.25 C 120.171875 2.5 121.921875 2.6875 123.671875 2.8125 C 125.421875 2.9375 127.164062 3 128.90625 3 C 133.65625 3.25 138.40625 3.375 143.15625 3.375 C 147.90625 3.375 152.648438 3.125 157.390625 2.625 C 160.140625 1.875 165.320312 0.1875 172.9375 -2.4375 C 180.5625 -5.0625 188.929688 -8.179688 198.046875 -11.796875 C 207.171875 -15.421875 215.539062 -19.109375 223.15625 -22.859375 C 230.78125 -26.609375 235.96875 -29.859375 238.71875 -32.609375 C 242.46875 -36.347656 245.960938 -41.710938 249.203125 -48.703125 C 252.453125 -55.703125 255.265625 -62.703125 257.640625 -69.703125 C 260.015625 -76.703125 261.703125 -82.070312 262.703125 -85.8125 C 263.703125 -91.5625 264.265625 -98.367188 264.390625 -106.234375 C 264.515625 -114.109375 264.578125 -120.796875 264.578125 -126.296875 C 264.578125 -130.035156 264.578125 -135.09375 264.578125 -141.46875 C 264.578125 -147.84375 264.453125 -154.210938 264.203125 -160.578125 C 263.953125 -166.953125 263.453125 -172.007812 262.703125 -175.75 C 261.953125 -178.5 260.453125 -182.5625 258.203125 -187.9375 C 255.953125 -193.3125 253.390625 -199.054688 250.515625 -205.171875 C 247.640625 -211.296875 244.578125 -217.039062 241.328125 -222.40625 C 238.085938 -227.78125 235.09375 -231.84375 232.34375 -234.59375 C 229.59375 -237.34375 224.34375 -240.398438 216.59375 -243.765625 C 208.851562 -247.140625 200.421875 -250.390625 191.296875 -253.515625 C 182.179688 -256.640625 173.75 -259.265625 166 -261.390625 C 158.257812 -263.515625 153.019531 -264.828125 150.28125 -265.328125 C 147.53125 -265.578125 143.28125 -265.640625 137.53125 -265.515625 C 131.78125 -265.390625 125.65625 -265.078125 119.15625 -264.578125 C 112.664062 -264.078125 106.546875 -263.328125 100.796875 -262.328125 C 95.054688 -261.328125 90.8125 -260.078125 88.0625 -258.578125 C 82.570312 -256.078125 75.640625 -252.890625 67.265625 -249.015625 C 58.898438 -245.148438 51.84375 -240.46875 46.09375 -234.96875 C 42.09375 -231.71875 38.347656 -227.71875 34.859375 -222.96875 L 30.734375 -218.484375 C 29.984375 -217.734375 29.609375 -217.359375 29.609375 -217.359375 C 29.359375 -217.359375 29.421875 -217.796875 29.796875 -218.671875 C 30.171875 -219.546875 30.484375 -219.984375 30.734375 -219.984375 C 31.234375 -221.722656 31.859375 -223.34375 32.609375 -224.84375 C 33.359375 -226.34375 34.226562 -227.96875 35.21875 -229.71875 C 38.96875 -235.46875 43.59375 -240.898438 49.09375 -246.015625 C 54.59375 -251.140625 60.085938 -255.703125 65.578125 -259.703125 C 69.828125 -262.703125 74.320312 -265.257812 79.0625 -267.375 C 83.8125 -269.5 88.5625 -271.4375 93.3125 -273.1875 C 95.5625 -275.4375 100.367188 -277.375 107.734375 -279 C 115.109375 -280.625 123.726562 -281.875 133.59375 -282.75 C 143.46875 -283.625 153.335938 -284.125 163.203125 -284.25 C 173.066406 -284.375 181.679688 -284 189.046875 -283.125 C 196.421875 -282.25 201.234375 -280.8125 203.484375 -278.8125 C 208.734375 -277.3125 213.851562 -275.5 218.84375 -273.375 C 223.84375 -271.25 228.71875 -268.816406 233.46875 -266.078125 C 239.21875 -262.078125 245.460938 -257.078125 252.203125 -251.078125 C 258.953125 -245.085938 264.695312 -239.21875 269.4375 -233.46875 C 273.6875 -227.96875 277.125 -221.21875 279.75 -213.21875 C 282.375 -205.226562 284.6875 -198.363281 286.6875 -192.625 C 287.9375 -187.625 289.1875 -182.5 290.4375 -177.25 C 291.6875 -172.007812 292.554688 -166.890625 293.046875 -161.890625 C 293.796875 -156.390625 294.234375 -150.015625 294.359375 -142.765625 C 294.484375 -135.523438 294.546875 -129.035156 294.546875 -123.296875 C 294.546875 -117.796875 294.421875 -110.859375 294.171875 -102.484375 C 293.921875 -94.117188 293.421875 -86.816406 292.671875 -80.578125 Z M 149.15625 -175.390625 C 148.15625 -173.140625 147.09375 -170.828125 145.96875 -168.453125 C 144.84375 -166.078125 144.03125 -163.640625 143.53125 -161.140625 C 141.78125 -155.640625 140.84375 -149.890625 140.71875 -143.890625 C 140.59375 -137.898438 140.53125 -132.035156 140.53125 -126.296875 C 140.53125 -122.796875 140.46875 -119.109375 140.34375 -115.234375 C 140.21875 -111.359375 140.65625 -107.675781 141.65625 -104.1875 C 142.15625 -103.1875 142.65625 -101.9375 143.15625 -100.4375 C 143.65625 -98.9375 144.15625 -97.6875 144.65625 -96.6875 C 145.65625 -95.4375 146.78125 -94.3125 148.03125 -93.3125 C 149.28125 -92.3125 150.40625 -91.1875 151.40625 -89.9375 C 151.90625 -89.1875 152.710938 -88.3125 153.828125 -87.3125 C 154.953125 -86.3125 155.640625 -85.4375 155.890625 -84.6875 C 155.890625 -84.1875 155.765625 -83.5 155.515625 -82.625 C 155.265625 -81.757812 155.015625 -81.078125 154.765625 -80.578125 C 154.765625 -80.328125 154.765625 -79.890625 154.765625 -79.265625 C 154.765625 -78.640625 154.515625 -78.078125 154.015625 -77.578125 C 153.765625 -77.078125 153.265625 -76.640625 152.515625 -76.265625 C 151.773438 -75.890625 151.15625 -75.453125 150.65625 -74.953125 C 148.15625 -73.203125 145.15625 -72.078125 141.65625 -71.578125 C 138.15625 -71.078125 134.78125 -71.328125 131.53125 -72.328125 C 126.539062 -73.828125 122.546875 -76.695312 119.546875 -80.9375 C 116.546875 -85.1875 114.421875 -89.6875 113.171875 -94.4375 C 112.171875 -98.4375 111.609375 -102.617188 111.484375 -106.984375 C 111.359375 -111.359375 111.171875 -115.671875 110.921875 -119.921875 C 110.921875 -125.671875 110.921875 -132.101562 110.921875 -139.21875 C 110.921875 -146.34375 111.171875 -152.648438 111.671875 -158.140625 C 112.171875 -162.390625 112.984375 -166.820312 114.109375 -171.4375 C 115.234375 -176.0625 117.421875 -180 120.671875 -183.25 C 125.171875 -188.25 131.289062 -190.75 139.03125 -190.75 C 139.53125 -190.75 140.21875 -190.75 141.09375 -190.75 C 141.96875 -190.75 142.65625 -190.625 143.15625 -190.375 C 143.90625 -190.125 144.71875 -189.6875 145.59375 -189.0625 C 146.46875 -188.4375 147.28125 -187.875 148.03125 -187.375 C 149.03125 -186.875 149.65625 -186.5 149.90625 -186.25 C 150.15625 -186 150.28125 -185.5625 150.28125 -184.9375 C 150.28125 -184.3125 150.28125 -183.75 150.28125 -183.25 C 150.53125 -181.75 150.59375 -180.5 150.46875 -179.5 C 150.34375 -178.5 149.90625 -177.128906 149.15625 -175.390625 Z M 149.15625 -175.390625 "/></g></g></g><g fill="#fffcf5" fillOpacity="1"><g transform="translate(836.503901, 690.88895)"><g><path d="M 279.9375 -187.375 C 279.6875 -183.375 279.3125 -179.375 278.8125 -175.375 C 278.3125 -171.382812 277.5625 -167.390625 276.5625 -163.390625 C 275.8125 -160.640625 274.9375 -157.890625 273.9375 -155.140625 C 272.9375 -152.398438 271.9375 -149.65625 270.9375 -146.90625 C 270.1875 -144.40625 269.5625 -141.84375 269.0625 -139.21875 C 268.570312 -136.59375 267.953125 -133.90625 267.203125 -131.15625 C 264.453125 -122.914062 260.453125 -115.421875 255.203125 -108.671875 C 251.953125 -104.429688 248.203125 -100.625 243.953125 -97.25 C 239.710938 -93.875 235.21875 -90.8125 230.46875 -88.0625 C 226.46875 -85.3125 222.34375 -82.6875 218.09375 -80.1875 C 213.851562 -77.695312 209.359375 -75.578125 204.609375 -73.828125 C 199.117188 -71.578125 192.1875 -69.765625 183.8125 -68.390625 C 175.445312 -67.015625 168.390625 -66.078125 162.640625 -65.578125 C 160.890625 -65.328125 158.890625 -65.265625 156.640625 -65.390625 C 154.390625 -65.515625 152.269531 -65.328125 150.28125 -64.828125 C 149.03125 -64.328125 147.78125 -63.703125 146.53125 -62.953125 C 146.28125 -62.703125 145.71875 -62.515625 144.84375 -62.390625 C 143.96875 -62.265625 143.40625 -61.953125 143.15625 -61.453125 C 142.90625 -60.953125 142.65625 -60.140625 142.40625 -59.015625 C 142.15625 -57.898438 141.90625 -57.09375 141.65625 -56.59375 C 140.90625 -53.34375 140.65625 -50.15625 140.90625 -47.03125 C 141.15625 -43.90625 141.15625 -40.71875 140.90625 -37.46875 C 140.65625 -36.21875 140.53125 -34.90625 140.53125 -33.53125 C 140.53125 -32.164062 140.28125 -30.859375 139.78125 -29.609375 C 139.03125 -27.109375 137.96875 -24.609375 136.59375 -22.109375 C 135.21875 -19.609375 134.28125 -17.109375 133.78125 -14.609375 C 133.28125 -12.617188 132.90625 -10.625 132.65625 -8.625 C 132.40625 -6.625 132.03125 -4.625 131.53125 -2.625 C 131.28125 -2.125 131.15625 -1.4375 131.15625 -0.5625 C 131.15625 0.3125 130.90625 1 130.40625 1.5 C 130.15625 2.25 129.65625 2.9375 128.90625 3.5625 C 128.164062 4.1875 127.546875 4.75 127.046875 5.25 C 124.796875 7.75 121.984375 9.992188 118.609375 11.984375 C 115.234375 13.984375 111.921875 15.234375 108.671875 15.734375 C 103.179688 16.734375 96.6875 17.171875 89.1875 17.046875 C 81.695312 16.921875 75.078125 16.859375 69.328125 16.859375 L 44.21875 16.859375 C 42.21875 16.859375 39.90625 16.796875 37.28125 16.671875 C 34.664062 16.546875 32.359375 15.984375 30.359375 14.984375 C 29.109375 14.484375 27.734375 13.671875 26.234375 12.546875 C 24.734375 11.429688 23.359375 10.5 22.109375 9.75 C 21.359375 9.25 20.546875 8.625 19.671875 7.875 C 18.796875 7.125 17.859375 6.625 16.859375 6.375 C 15.609375 5.875 14.296875 5.5 12.921875 5.25 C 11.554688 5 10.25 4.75 9 4.5 C 8.25 4 7.5 3.4375 6.75 2.8125 C 6 2.1875 5.375 1.75 4.875 1.5 C 3.625 1 2.875 0.375 2.625 -0.375 C 2.375 -0.875 2.125 -1.5 1.875 -2.25 C 1.625 -3 1.375 -3.625 1.125 -4.125 C 0.375 -6.625 -0.0625 -9.242188 -0.1875 -11.984375 C -0.3125 -14.734375 -0.375 -17.359375 -0.375 -19.859375 L -0.375 -219.609375 C -0.375 -223.097656 -0.4375 -226.53125 -0.5625 -229.90625 C -0.6875 -233.28125 -0.625 -236.59375 -0.375 -239.84375 C -0.375 -241.09375 -0.3125 -242.460938 -0.1875 -243.953125 C -0.0625 -245.453125 0.25 -246.703125 0.75 -247.703125 C 1 -248.453125 1.4375 -249.203125 2.0625 -249.953125 C 2.6875 -250.703125 3.125 -251.328125 3.375 -251.828125 C 3.625 -252.328125 3.9375 -252.828125 4.3125 -253.328125 C 4.6875 -253.828125 5 -254.203125 5.25 -254.453125 C 5.75 -254.953125 6.5 -255.390625 7.5 -255.765625 C 8.5 -256.140625 9.375 -256.453125 10.125 -256.703125 C 11.863281 -257.453125 13.609375 -258.078125 15.359375 -258.578125 C 17.109375 -259.078125 18.859375 -259.578125 20.609375 -260.078125 C 22.609375 -260.828125 24.484375 -261.828125 26.234375 -263.078125 C 30.234375 -265.078125 33.726562 -267.695312 36.71875 -270.9375 C 39.71875 -274.1875 43.09375 -276.8125 46.84375 -278.8125 C 49.84375 -280.5625 53.085938 -281.5625 56.578125 -281.8125 C 60.078125 -282.0625 63.453125 -282.1875 66.703125 -282.1875 L 148.40625 -282.1875 C 152.644531 -282.1875 157.015625 -282.25 161.515625 -282.375 C 166.015625 -282.5 170.390625 -282.4375 174.640625 -282.1875 C 177.378906 -281.9375 182.554688 -280.875 190.171875 -279 C 197.796875 -277.125 206.101562 -274.75 215.09375 -271.875 C 224.09375 -269.007812 232.398438 -265.953125 240.015625 -262.703125 C 247.640625 -259.453125 252.828125 -256.453125 255.578125 -253.703125 C 259.828125 -249.453125 263.578125 -244.832031 266.828125 -239.84375 C 270.816406 -233.59375 273.8125 -226.722656 275.8125 -219.234375 C 277.3125 -214.234375 278.375 -209.109375 279 -203.859375 C 279.625 -198.617188 279.9375 -193.125 279.9375 -187.375 Z M 40.46875 -0.375 C 44.21875 -0.125 49.648438 0 56.765625 0 C 63.890625 0 71.007812 0 78.125 0 C 85.25 0 90.6875 0 94.4375 0 C 99.1875 0 103.429688 -0.875 107.171875 -2.625 C 107.671875 -2.875 108.359375 -3.125 109.234375 -3.375 C 110.109375 -3.625 110.671875 -3.875 110.921875 -4.125 C 113.171875 -5.875 114.796875 -8 115.796875 -10.5 C 116.296875 -11.988281 116.546875 -13.359375 116.546875 -14.609375 C 117.546875 -18.609375 118.046875 -23.234375 118.046875 -28.484375 L 118.046875 -58.46875 C 118.046875 -60.457031 118.109375 -62.453125 118.234375 -64.453125 C 118.359375 -66.453125 118.546875 -68.328125 118.796875 -70.078125 C 119.046875 -70.578125 119.171875 -71.265625 119.171875 -72.140625 C 119.171875 -73.015625 119.296875 -73.703125 119.546875 -74.203125 C 119.796875 -74.453125 120.046875 -74.703125 120.296875 -74.953125 C 120.546875 -75.203125 120.796875 -75.453125 121.046875 -75.703125 C 121.796875 -76.203125 122.546875 -76.890625 123.296875 -77.765625 C 124.046875 -78.640625 124.921875 -79.328125 125.921875 -79.828125 C 127.421875 -80.328125 128.664062 -80.578125 129.65625 -80.578125 C 133.15625 -81.328125 136.53125 -81.703125 139.78125 -81.703125 C 144.03125 -81.941406 148.210938 -82.125 152.328125 -82.25 C 156.453125 -82.375 160.515625 -82.5625 164.515625 -82.8125 C 167.265625 -83.5625 172.257812 -85.3125 179.5 -88.0625 C 186.75 -90.8125 194.742188 -94.125 203.484375 -98 C 212.234375 -101.875 220.226562 -105.804688 227.46875 -109.796875 C 234.71875 -113.796875 239.71875 -117.171875 242.46875 -119.921875 C 246.207031 -125.421875 249.140625 -131.601562 251.265625 -138.46875 C 253.390625 -145.34375 254.828125 -151.523438 255.578125 -157.015625 C 256.578125 -159.765625 256.265625 -164.882812 254.640625 -172.375 C 253.015625 -179.875 250.703125 -188.117188 247.703125 -197.109375 C 244.710938 -206.109375 241.40625 -214.351562 237.78125 -221.84375 C 234.15625 -229.34375 230.96875 -234.46875 228.21875 -237.21875 C 225.46875 -239.96875 220.84375 -242.710938 214.34375 -245.453125 C 207.851562 -248.203125 200.859375 -250.703125 193.359375 -252.953125 C 185.867188 -255.203125 178.875 -257.078125 172.375 -258.578125 C 165.882812 -260.078125 161.265625 -261.078125 158.515625 -261.578125 C 153.023438 -262.078125 146.46875 -262.328125 138.84375 -262.328125 C 131.226562 -262.328125 124.546875 -262.328125 118.796875 -262.328125 L 59.953125 -262.328125 C 55.960938 -262.328125 51.84375 -262.328125 47.59375 -262.328125 C 43.34375 -262.328125 39.097656 -261.828125 34.859375 -260.828125 C 33.859375 -260.828125 32.609375 -260.578125 31.109375 -260.078125 C 29.609375 -259.328125 28.234375 -258.328125 26.984375 -257.078125 L 24.734375 -255.578125 C 24.484375 -255.078125 24.234375 -254.390625 23.984375 -253.515625 C 23.734375 -252.640625 23.359375 -251.953125 22.859375 -251.453125 C 21.859375 -248.953125 21.234375 -246.578125 20.984375 -244.328125 C 20.734375 -242.085938 20.609375 -239.59375 20.609375 -236.84375 L 20.609375 -53.96875 C 20.609375 -48.46875 20.609375 -43.03125 20.609375 -37.65625 C 20.609375 -32.289062 20.734375 -26.984375 20.984375 -21.734375 C 20.984375 -19.984375 21.171875 -18.234375 21.546875 -16.484375 C 21.921875 -14.734375 22.359375 -12.863281 22.859375 -10.875 C 23.109375 -10.625 23.296875 -10.1875 23.421875 -9.5625 C 23.546875 -8.9375 23.734375 -8.5 23.984375 -8.25 C 24.234375 -8 24.609375 -7.6875 25.109375 -7.3125 C 25.609375 -6.9375 25.984375 -6.5 26.234375 -6 C 26.984375 -5.5 27.671875 -4.9375 28.296875 -4.3125 C 28.921875 -3.6875 29.609375 -3.125 30.359375 -2.625 C 31.609375 -2.125 33.164062 -1.6875 35.03125 -1.3125 C 36.90625 -0.9375 38.71875 -0.625 40.46875 -0.375 Z M 138.28125 -192.25 C 139.53125 -192 140.84375 -191.875 142.21875 -191.875 C 143.59375 -191.875 144.78125 -191.625 145.78125 -191.125 C 146.53125 -190.875 147.28125 -190.5625 148.03125 -190.1875 C 148.78125 -189.8125 149.40625 -189.375 149.90625 -188.875 C 150.40625 -188.625 150.960938 -188.375 151.578125 -188.125 C 152.203125 -187.875 152.640625 -187.625 152.890625 -187.375 L 155.140625 -183.625 C 155.390625 -183.125 155.765625 -182.5 156.265625 -181.75 C 156.765625 -181 157.140625 -180.375 157.390625 -179.875 C 157.890625 -178.125 158.203125 -176.25 158.328125 -174.25 C 158.453125 -172.257812 158.390625 -170.265625 158.140625 -168.265625 C 157.890625 -167.515625 157.765625 -166.765625 157.765625 -166.015625 C 157.765625 -165.265625 157.640625 -164.640625 157.390625 -164.140625 C 157.140625 -163.640625 156.828125 -163.078125 156.453125 -162.453125 C 156.078125 -161.828125 155.765625 -161.265625 155.515625 -160.765625 L 153.265625 -157.390625 C 152.523438 -156.640625 151.40625 -156.015625 149.90625 -155.515625 C 147.15625 -153.765625 144.09375 -152.515625 140.71875 -151.765625 C 137.34375 -151.023438 134.03125 -150.78125 130.78125 -151.03125 C 129.78125 -151.03125 128.78125 -151.15625 127.78125 -151.40625 C 126.789062 -151.65625 125.796875 -151.90625 124.796875 -152.15625 L 122.921875 -152.15625 C 122.421875 -152.644531 121.984375 -153.203125 121.609375 -153.828125 C 121.234375 -154.453125 120.796875 -154.890625 120.296875 -155.140625 C 120.046875 -155.640625 119.609375 -156.203125 118.984375 -156.828125 C 118.359375 -157.453125 117.921875 -157.890625 117.671875 -158.140625 C 117.421875 -158.640625 117.234375 -159.328125 117.109375 -160.203125 C 116.984375 -161.078125 116.921875 -161.765625 116.921875 -162.265625 C 116.671875 -164.515625 116.484375 -166.765625 116.359375 -169.015625 C 116.234375 -171.265625 116.171875 -173.390625 116.171875 -175.390625 C 116.171875 -176.628906 116.171875 -177.875 116.171875 -179.125 C 116.171875 -180.375 116.296875 -181.5 116.546875 -182.5 C 116.796875 -183.5 117.234375 -184.375 117.859375 -185.125 C 118.484375 -185.875 118.921875 -186.625 119.171875 -187.375 C 119.421875 -187.875 119.671875 -188.375 119.921875 -188.875 C 120.171875 -189.375 120.421875 -189.75 120.671875 -190 C 121.171875 -190.5 121.859375 -190.75 122.734375 -190.75 C 123.609375 -190.75 124.171875 -190.875 124.421875 -191.125 C 126.671875 -191.875 128.914062 -192.3125 131.15625 -192.4375 C 133.40625 -192.5625 135.78125 -192.5 138.28125 -192.25 Z M 138.28125 -192.25 "/></g></g></g><g fill="#fffcf5" fillOpacity="1"><g transform="translate(1100.701338, 690.88895)"><g/></g></g><g fill="#f5ad31" fillOpacity="1"><g transform="translate(1170.406225, 690.88895)"><g><path d="M 274.6875 -198.25 C 274.4375 -195.75 274.1875 -193.1875 273.9375 -190.5625 C 273.6875 -187.9375 272.9375 -185.625 271.6875 -183.625 C 269.945312 -180.625 267.578125 -178.375 264.578125 -176.875 C 261.578125 -175.382812 258.328125 -174.390625 254.828125 -173.890625 C 250.078125 -173.390625 245.140625 -173.203125 240.015625 -173.328125 C 234.898438 -173.453125 229.84375 -173.390625 224.84375 -173.140625 C 222.851562 -172.890625 220.609375 -172.640625 218.109375 -172.390625 C 215.609375 -172.140625 213.359375 -171.515625 211.359375 -170.515625 C 210.859375 -170.265625 210.296875 -169.765625 209.671875 -169.015625 C 209.046875 -168.265625 208.484375 -167.640625 207.984375 -167.140625 C 207.734375 -166.890625 207.359375 -166.578125 206.859375 -166.203125 C 206.359375 -165.828125 205.984375 -165.390625 205.734375 -164.890625 C 205.234375 -163.890625 204.984375 -163.015625 204.984375 -162.265625 C 204.484375 -160.515625 204.046875 -158.890625 203.671875 -157.390625 C 203.296875 -155.890625 203.109375 -154.265625 203.109375 -152.515625 C 202.859375 -148.273438 202.734375 -143.90625 202.734375 -139.40625 C 202.734375 -134.90625 202.734375 -130.535156 202.734375 -126.296875 L 202.734375 -35.59375 C 202.734375 -31.601562 202.734375 -27.484375 202.734375 -23.234375 C 202.734375 -18.984375 202.484375 -14.738281 201.984375 -10.5 C 201.734375 -8.75 201.359375 -6.75 200.859375 -4.5 C 200.359375 -2.25 199.488281 -0.25 198.25 1.5 L 195.625 3 C 195.125 3.5 194.5 4.0625 193.75 4.6875 C 193 5.3125 192.25 5.875 191.5 6.375 L 186.625 7.5 C 182.375 8.5 177.9375 8.9375 173.3125 8.8125 C 168.695312 8.6875 164.140625 8.625 159.640625 8.625 C 154.148438 8.625 148.21875 8.625 141.84375 8.625 C 135.46875 8.625 129.410156 8.375 123.671875 7.875 C 120.921875 7.875 117.921875 7.25 114.671875 6 C 114.421875 6 113.921875 5.9375 113.171875 5.8125 C 112.421875 5.6875 111.921875 5.5 111.671875 5.25 L 112.046875 1.5 C 112.296875 1.25 112.796875 1.125 113.546875 1.125 C 114.296875 1.125 114.796875 1 115.046875 0.75 C 117.796875 0.25 120.359375 0 122.734375 0 C 125.109375 0 127.539062 0 130.03125 0 C 133.78125 0 138.460938 -0.25 144.078125 -0.75 C 149.703125 -1.25 155.078125 -2.375 160.203125 -4.125 C 165.328125 -5.875 169.015625 -8.617188 171.265625 -12.359375 C 172.265625 -14.359375 172.890625 -16.484375 173.140625 -18.734375 C 173.390625 -20.984375 173.515625 -23.109375 173.515625 -25.109375 C 174.015625 -29.359375 174.203125 -33.664062 174.078125 -38.03125 C 173.953125 -42.40625 173.890625 -46.71875 173.890625 -50.96875 L 173.890625 -133.03125 C 173.890625 -137.28125 173.890625 -141.585938 173.890625 -145.953125 C 173.890625 -150.328125 174.015625 -154.640625 174.265625 -158.890625 C 174.265625 -160.890625 174.390625 -163.078125 174.640625 -165.453125 C 174.890625 -167.828125 175.507812 -169.890625 176.5 -171.640625 C 178.25 -175.128906 180.8125 -177.5625 184.1875 -178.9375 C 187.5625 -180.3125 191 -181.125 194.5 -181.375 C 199.488281 -181.875 204.421875 -182.0625 209.296875 -181.9375 C 214.171875 -181.8125 218.976562 -181.875 223.71875 -182.125 C 225.71875 -182.375 227.84375 -182.75 230.09375 -183.25 C 232.34375 -183.75 234.34375 -184.5 236.09375 -185.5 C 238.84375 -187.25 240.96875 -189.625 242.46875 -192.625 C 243.96875 -195.625 244.96875 -198.742188 245.46875 -201.984375 C 245.957031 -206.484375 246.203125 -210.984375 246.203125 -215.484375 C 246.203125 -219.984375 246.203125 -224.476562 246.203125 -228.96875 C 246.203125 -232.46875 246.078125 -235.90625 245.828125 -239.28125 C 245.585938 -242.65625 244.71875 -245.960938 243.21875 -249.203125 C 242.96875 -249.703125 242.78125 -250.390625 242.65625 -251.265625 C 242.53125 -252.140625 242.21875 -252.703125 241.71875 -252.953125 C 239.96875 -255.703125 237.53125 -257.765625 234.40625 -259.140625 C 231.28125 -260.515625 228.09375 -261.328125 224.84375 -261.578125 C 219.351562 -262.328125 213.421875 -262.640625 207.046875 -262.515625 C 200.679688 -262.390625 194.625 -262.328125 188.875 -262.328125 L 40.84375 -262.328125 C 37.59375 -262.328125 34.21875 -262.328125 30.71875 -262.328125 C 27.226562 -262.328125 23.984375 -261.703125 20.984375 -260.453125 C 20.234375 -260.203125 19.546875 -259.890625 18.921875 -259.515625 C 18.296875 -259.140625 17.734375 -258.703125 17.234375 -258.203125 C 15.734375 -257.703125 14.609375 -257.078125 13.859375 -256.328125 C 13.609375 -256.078125 13.296875 -255.578125 12.921875 -254.828125 C 12.546875 -254.078125 12.113281 -253.453125 11.625 -252.953125 C 8.375 -248.703125 6.6875 -243.765625 6.5625 -238.140625 C 6.4375 -232.523438 6.375 -227.222656 6.375 -222.234375 L 6.375 -212.109375 C 6.375 -209.609375 6.375 -207.234375 6.375 -204.984375 C 6.375 -202.734375 6.125 -200.488281 5.625 -198.25 C 5.625 -198 5.5625 -197.375 5.4375 -196.375 C 5.3125 -195.375 5.125 -194.625 4.875 -194.125 C 4.625 -193.875 4.125 -193.75 3.375 -193.75 C 2.625 -193.75 2.125 -193.75 1.875 -193.75 C 1.625 -193.75 1.125 -193.625 0.375 -193.375 C -0.375 -193.125 -1 -193.125 -1.5 -193.375 C -1.75 -193.625 -2.125 -194.25 -2.625 -195.25 C -3.125 -196.25 -3.5 -196.875 -3.75 -197.125 L -6.375 -200.484375 C -7.375 -203.484375 -7.875 -206.109375 -7.875 -208.359375 C -8.375 -211.859375 -8.625 -215.414062 -8.625 -219.03125 C -8.625 -222.65625 -8.625 -226.21875 -8.625 -229.71875 C -8.625 -233.46875 -8.5625 -238.023438 -8.4375 -243.390625 C -8.3125 -248.765625 -7.5625 -254.140625 -6.1875 -259.515625 C -4.8125 -264.890625 -2.375 -269.445312 1.125 -273.1875 C 1.625 -273.6875 2.125 -274.3125 2.625 -275.0625 C 3.125 -275.8125 3.75 -276.4375 4.5 -276.9375 C 8.75 -280.9375 13.617188 -283.1875 19.109375 -283.6875 C 24.609375 -284.1875 30.101562 -284.4375 35.59375 -284.4375 L 194.5 -284.4375 C 199.238281 -284.4375 203.921875 -284.5 208.546875 -284.625 C 213.171875 -284.75 217.851562 -284.5625 222.59375 -284.0625 C 225.84375 -283.8125 229.15625 -283.375 232.53125 -282.75 C 235.90625 -282.125 238.96875 -280.9375 241.71875 -279.1875 C 245.457031 -277.1875 248.390625 -274.5 250.515625 -271.125 C 252.640625 -267.757812 254.953125 -264.453125 257.453125 -261.203125 C 260.203125 -257.953125 263.007812 -254.890625 265.875 -252.015625 C 268.75 -249.140625 270.9375 -245.707031 272.4375 -241.71875 C 273.6875 -238.96875 274.4375 -235.90625 274.6875 -232.53125 C 274.9375 -229.15625 275.0625 -225.96875 275.0625 -222.96875 Z M 36.34375 -181.75 C 40.84375 -181.75 45.34375 -181.8125 49.84375 -181.9375 C 54.34375 -182.0625 58.835938 -181.875 63.328125 -181.375 C 64.078125 -181.125 64.828125 -181.0625 65.578125 -181.1875 C 66.328125 -181.3125 66.953125 -181.25 67.453125 -181 L 72.328125 -178.375 C 72.828125 -178.125 73.328125 -177.875 73.828125 -177.625 C 74.328125 -177.375 74.703125 -177.125 74.953125 -176.875 C 75.453125 -176.375 75.890625 -175.625 76.265625 -174.625 C 76.640625 -173.632812 76.953125 -172.765625 77.203125 -172.015625 C 78.703125 -168.515625 79.328125 -164.515625 79.078125 -160.015625 C 78.828125 -155.515625 78.703125 -151.269531 78.703125 -147.28125 L 78.703125 -68.203125 C 78.703125 -64.453125 78.703125 -59.890625 78.703125 -54.515625 C 78.703125 -49.148438 78.765625 -43.71875 78.890625 -38.21875 C 79.015625 -32.726562 78.953125 -28.109375 78.703125 -24.359375 C 78.703125 -23.359375 78.765625 -22.109375 78.890625 -20.609375 C 79.015625 -19.109375 78.828125 -17.859375 78.328125 -16.859375 C 78.078125 -16.359375 77.640625 -15.734375 77.015625 -14.984375 C 76.390625 -14.234375 75.828125 -13.609375 75.328125 -13.109375 C 75.078125 -13.109375 74.765625 -12.734375 74.390625 -11.984375 C 74.015625 -11.242188 73.703125 -10.875 73.453125 -10.875 C 73.203125 -10.875 72.953125 -11.054688 72.703125 -11.421875 C 72.453125 -11.796875 72.078125 -12.109375 71.578125 -12.359375 C 71.328125 -12.859375 70.890625 -13.359375 70.265625 -13.859375 C 69.640625 -14.359375 69.078125 -14.859375 68.578125 -15.359375 C 67.578125 -16.109375 66.953125 -16.984375 66.703125 -17.984375 C 66.453125 -18.984375 66.078125 -20.109375 65.578125 -21.359375 C 64.578125 -24.109375 64.015625 -27.046875 63.890625 -30.171875 C 63.765625 -33.296875 63.703125 -36.351562 63.703125 -39.34375 C 63.703125 -41.59375 63.703125 -45.960938 63.703125 -52.453125 C 63.703125 -58.953125 63.703125 -66.445312 63.703125 -74.9375 C 63.703125 -83.4375 63.703125 -91.929688 63.703125 -100.421875 C 63.703125 -108.921875 63.703125 -116.414062 63.703125 -122.90625 C 63.703125 -129.40625 63.703125 -133.78125 63.703125 -136.03125 C 63.703125 -139.28125 63.703125 -142.46875 63.703125 -145.59375 C 63.703125 -148.71875 63.453125 -151.898438 62.953125 -155.140625 C 62.953125 -155.890625 62.953125 -156.703125 62.953125 -157.578125 C 62.953125 -158.453125 62.703125 -159.265625 62.203125 -160.015625 C 61.953125 -160.765625 61.640625 -161.453125 61.265625 -162.078125 C 60.890625 -162.703125 60.578125 -163.390625 60.328125 -164.140625 L 58.09375 -167.890625 C 57.84375 -168.390625 57.28125 -168.828125 56.40625 -169.203125 C 55.53125 -169.578125 54.84375 -169.890625 54.34375 -170.140625 L 50.96875 -172.390625 C 48.46875 -173.640625 45.78125 -174.390625 42.90625 -174.640625 C 40.03125 -174.890625 37.347656 -175.507812 34.859375 -176.5 C 33.859375 -177 32.984375 -177.5 32.234375 -178 C 31.484375 -178.5 30.734375 -179 29.984375 -179.5 C 29.734375 -179.75 29.359375 -179.9375 28.859375 -180.0625 C 28.359375 -180.1875 28.109375 -180.375 28.109375 -180.625 C 28.109375 -181.125 28.421875 -181.25 29.046875 -181 C 29.671875 -180.75 30.109375 -180.75 30.359375 -181 C 31.109375 -181.25 31.984375 -181.4375 32.984375 -181.5625 C 33.984375 -181.6875 35.101562 -181.75 36.34375 -181.75 Z M 36.34375 -181.75 "/></g></g></g><g clipPath="url(#b9560d4bcb)"><g fill="#ff3131" fillOpacity="1"><g transform="translate(1422.997068, 690.88895)"><g><path d="M 274.6875 -198.25 C 274.4375 -195.75 274.1875 -193.1875 273.9375 -190.5625 C 273.6875 -187.9375 272.9375 -185.625 271.6875 -183.625 C 269.945312 -180.625 267.578125 -178.375 264.578125 -176.875 C 261.578125 -175.382812 258.328125 -174.390625 254.828125 -173.890625 C 250.078125 -173.390625 245.140625 -173.203125 240.015625 -173.328125 C 234.898438 -173.453125 229.84375 -173.390625 224.84375 -173.140625 C 222.851562 -172.890625 220.609375 -172.640625 218.109375 -172.390625 C 215.609375 -172.140625 213.359375 -171.515625 211.359375 -170.515625 C 210.859375 -170.265625 210.296875 -169.765625 209.671875 -169.015625 C 209.046875 -168.265625 208.484375 -167.640625 207.984375 -167.140625 C 207.734375 -166.890625 207.359375 -166.578125 206.859375 -166.203125 C 206.359375 -165.828125 205.984375 -165.390625 205.734375 -164.890625 C 205.234375 -163.890625 204.984375 -163.015625 204.984375 -162.265625 C 204.484375 -160.515625 204.046875 -158.890625 203.671875 -157.390625 C 203.296875 -155.890625 203.109375 -154.265625 203.109375 -152.515625 C 202.859375 -148.273438 202.734375 -143.90625 202.734375 -139.40625 C 202.734375 -134.90625 202.734375 -130.535156 202.734375 -126.296875 L 202.734375 -35.59375 C 202.734375 -31.601562 202.734375 -27.484375 202.734375 -23.234375 C 202.734375 -18.984375 202.484375 -14.738281 201.984375 -10.5 C 201.734375 -8.75 201.359375 -6.75 200.859375 -4.5 C 200.359375 -2.25 199.488281 -0.25 198.25 1.5 L 195.625 3 C 195.125 3.5 194.5 4.0625 193.75 4.6875 C 193 5.3125 192.25 5.875 191.5 6.375 L 186.625 7.5 C 182.375 8.5 177.9375 8.9375 173.3125 8.8125 C 168.695312 8.6875 164.140625 8.625 159.640625 8.625 C 154.148438 8.625 148.21875 8.625 141.84375 8.625 C 135.46875 8.625 129.410156 8.375 123.671875 7.875 C 120.921875 7.875 117.921875 7.25 114.671875 6 C 114.421875 6 113.921875 5.9375 113.171875 5.8125 C 112.421875 5.6875 111.921875 5.5 111.671875 5.25 L 112.046875 1.5 C 112.296875 1.25 112.796875 1.125 113.546875 1.125 C 114.296875 1.125 114.796875 1 115.046875 0.75 C 117.796875 0.25 120.359375 0 122.734375 0 C 125.109375 0 127.539062 0 130.03125 0 C 133.78125 0 138.460938 -0.25 144.078125 -0.75 C 149.703125 -1.25 155.078125 -2.375 160.203125 -4.125 C 165.328125 -5.875 169.015625 -8.617188 171.265625 -12.359375 C 172.265625 -14.359375 172.890625 -16.484375 173.140625 -18.734375 C 173.390625 -20.984375 173.515625 -23.109375 173.515625 -25.109375 C 174.015625 -29.359375 174.203125 -33.664062 174.078125 -38.03125 C 173.953125 -42.40625 173.890625 -46.71875 173.890625 -50.96875 L 173.890625 -133.03125 C 173.890625 -137.28125 173.890625 -141.585938 173.890625 -145.953125 C 173.890625 -150.328125 174.015625 -154.640625 174.265625 -158.890625 C 174.265625 -160.890625 174.390625 -163.078125 174.640625 -165.453125 C 174.890625 -167.828125 175.507812 -169.890625 176.5 -171.640625 C 178.25 -175.128906 180.8125 -177.5625 184.1875 -178.9375 C 187.5625 -180.3125 191 -181.125 194.5 -181.375 C 199.488281 -181.875 204.421875 -182.0625 209.296875 -181.9375 C 214.171875 -181.8125 218.976562 -181.875 223.71875 -182.125 C 225.71875 -182.375 227.84375 -182.75 230.09375 -183.25 C 232.34375 -183.75 234.34375 -184.5 236.09375 -185.5 C 238.84375 -187.25 240.96875 -189.625 242.46875 -192.625 C 243.96875 -195.625 244.96875 -198.742188 245.46875 -201.984375 C 245.957031 -206.484375 246.203125 -210.984375 246.203125 -215.484375 C 246.203125 -219.984375 246.203125 -224.476562 246.203125 -228.96875 C 246.203125 -232.46875 246.078125 -235.90625 245.828125 -239.28125 C 245.585938 -242.65625 244.71875 -245.960938 243.21875 -249.203125 C 242.96875 -249.703125 242.78125 -250.390625 242.65625 -251.265625 C 242.53125 -252.140625 242.21875 -252.703125 241.71875 -252.953125 C 239.96875 -255.703125 237.53125 -257.765625 234.40625 -259.140625 C 231.28125 -260.515625 228.09375 -261.328125 224.84375 -261.578125 C 219.351562 -262.328125 213.421875 -262.640625 207.046875 -262.515625 C 200.679688 -262.390625 194.625 -262.328125 188.875 -262.328125 L 40.84375 -262.328125 C 37.59375 -262.328125 34.21875 -262.328125 30.71875 -262.328125 C 27.226562 -262.328125 23.984375 -261.703125 20.984375 -260.453125 C 20.234375 -260.203125 19.546875 -259.890625 18.921875 -259.515625 C 18.296875 -259.140625 17.734375 -258.703125 17.234375 -258.203125 C 15.734375 -257.703125 14.609375 -257.078125 13.859375 -256.328125 C 13.609375 -256.078125 13.296875 -255.578125 12.921875 -254.828125 C 12.546875 -254.078125 12.113281 -253.453125 11.625 -252.953125 C 8.375 -248.703125 6.6875 -243.765625 6.5625 -238.140625 C 6.4375 -232.523438 6.375 -227.222656 6.375 -222.234375 L 6.375 -212.109375 C 6.375 -209.609375 6.375 -207.234375 6.375 -204.984375 C 6.375 -202.734375 6.125 -200.488281 5.625 -198.25 C 5.625 -198 5.5625 -197.375 5.4375 -196.375 C 5.3125 -195.375 5.125 -194.625 4.875 -194.125 C 4.625 -193.875 4.125 -193.75 3.375 -193.75 C 2.625 -193.75 2.125 -193.75 1.875 -193.75 C 1.625 -193.75 1.125 -193.625 0.375 -193.375 C -0.375 -193.125 -1 -193.125 -1.5 -193.375 C -1.75 -193.625 -2.125 -194.25 -2.625 -195.25 C -3.125 -196.25 -3.5 -196.875 -3.75 -197.125 L -6.375 -200.484375 C -7.375 -203.484375 -7.875 -206.109375 -7.875 -208.359375 C -8.375 -211.859375 -8.625 -215.414062 -8.625 -219.03125 C -8.625 -222.65625 -8.625 -226.21875 -8.625 -229.71875 C -8.625 -233.46875 -8.5625 -238.023438 -8.4375 -243.390625 C -8.3125 -248.765625 -7.5625 -254.140625 -6.1875 -259.515625 C -4.8125 -264.890625 -2.375 -269.445312 1.125 -273.1875 C 1.625 -273.6875 2.125 -274.3125 2.625 -275.0625 C 3.125 -275.8125 3.75 -276.4375 4.5 -276.9375 C 8.75 -280.9375 13.617188 -283.1875 19.109375 -283.6875 C 24.609375 -284.1875 30.101562 -284.4375 35.59375 -284.4375 L 194.5 -284.4375 C 199.238281 -284.4375 203.921875 -284.5 208.546875 -284.625 C 213.171875 -284.75 217.851562 -284.5625 222.59375 -284.0625 C 225.84375 -283.8125 229.15625 -283.375 232.53125 -282.75 C 235.90625 -282.125 238.96875 -280.9375 241.71875 -279.1875 C 245.457031 -277.1875 248.390625 -274.5 250.515625 -271.125 C 252.640625 -267.757812 254.953125 -264.453125 257.453125 -261.203125 C 260.203125 -257.953125 263.007812 -254.890625 265.875 -252.015625 C 268.75 -249.140625 270.9375 -245.707031 272.4375 -241.71875 C 273.6875 -238.96875 274.4375 -235.90625 274.6875 -232.53125 C 274.9375 -229.15625 275.0625 -225.96875 275.0625 -222.96875 Z M 36.34375 -181.75 C 40.84375 -181.75 45.34375 -181.8125 49.84375 -181.9375 C 54.34375 -182.0625 58.835938 -181.875 63.328125 -181.375 C 64.078125 -181.125 64.828125 -181.0625 65.578125 -181.1875 C 66.328125 -181.3125 66.953125 -181.25 67.453125 -181 L 72.328125 -178.375 C 72.828125 -178.125 73.328125 -177.875 73.828125 -177.625 C 74.328125 -177.375 74.703125 -177.125 74.953125 -176.875 C 75.453125 -176.375 75.890625 -175.625 76.265625 -174.625 C 76.640625 -173.632812 76.953125 -172.765625 77.203125 -172.015625 C 78.703125 -168.515625 79.328125 -164.515625 79.078125 -160.015625 C 78.828125 -155.515625 78.703125 -151.269531 78.703125 -147.28125 L 78.703125 -68.203125 C 78.703125 -64.453125 78.703125 -59.890625 78.703125 -54.515625 C 78.703125 -49.148438 78.765625 -43.71875 78.890625 -38.21875 C 79.015625 -32.726562 78.953125 -28.109375 78.703125 -24.359375 C 78.703125 -23.359375 78.765625 -22.109375 78.890625 -20.609375 C 79.015625 -19.109375 78.828125 -17.859375 78.328125 -16.859375 C 78.078125 -16.359375 77.640625 -15.734375 77.015625 -14.984375 C 76.390625 -14.234375 75.828125 -13.609375 75.328125 -13.109375 C 75.078125 -13.109375 74.765625 -12.734375 74.390625 -11.984375 C 74.015625 -11.242188 73.703125 -10.875 73.453125 -10.875 C 73.203125 -10.875 72.953125 -11.054688 72.703125 -11.421875 C 72.453125 -11.796875 72.078125 -12.109375 71.578125 -12.359375 C 71.328125 -12.859375 70.890625 -13.359375 70.265625 -13.859375 C 69.640625 -14.359375 69.078125 -14.859375 68.578125 -15.359375 C 67.578125 -16.109375 66.953125 -16.984375 66.703125 -17.984375 C 66.453125 -18.984375 66.078125 -20.109375 65.578125 -21.359375 C 64.578125 -24.109375 64.015625 -27.046875 63.890625 -30.171875 C 63.765625 -33.296875 63.703125 -36.351562 63.703125 -39.34375 C 63.703125 -41.59375 63.703125 -45.960938 63.703125 -52.453125 C 63.703125 -58.953125 63.703125 -66.445312 63.703125 -74.9375 C 63.703125 -83.4375 63.703125 -91.929688 63.703125 -100.421875 C 63.703125 -108.921875 63.703125 -116.414062 63.703125 -122.90625 C 63.703125 -129.40625 63.703125 -133.78125 63.703125 -136.03125 C 63.703125 -139.28125 63.703125 -142.46875 63.703125 -145.59375 C 63.703125 -148.71875 63.453125 -151.898438 62.953125 -155.140625 C 62.953125 -155.890625 62.953125 -156.703125 62.953125 -157.578125 C 62.953125 -158.453125 62.703125 -159.265625 62.203125 -160.015625 C 61.953125 -160.765625 61.640625 -161.453125 61.265625 -162.078125 C 60.890625 -162.703125 60.578125 -163.390625 60.328125 -164.140625 L 58.09375 -167.890625 C 57.84375 -168.390625 57.28125 -168.828125 56.40625 -169.203125 C 55.53125 -169.578125 54.84375 -169.890625 54.34375 -170.140625 L 50.96875 -172.390625 C 48.46875 -173.640625 45.78125 -174.390625 42.90625 -174.640625 C 40.03125 -174.890625 37.347656 -175.507812 34.859375 -176.5 C 33.859375 -177 32.984375 -177.5 32.234375 -178 C 31.484375 -178.5 30.734375 -179 29.984375 -179.5 C 29.734375 -179.75 29.359375 -179.9375 28.859375 -180.0625 C 28.359375 -180.1875 28.109375 -180.375 28.109375 -180.625 C 28.109375 -181.125 28.421875 -181.25 29.046875 -181 C 29.671875 -180.75 30.109375 -180.75 30.359375 -181 C 31.109375 -181.25 31.984375 -181.4375 32.984375 -181.5625 C 33.984375 -181.6875 35.101562 -181.75 36.34375 -181.75 Z M 36.34375 -181.75 "/></g></g></g></g></svg>