<svg xmlns="http://www.w3.org/2000/svg" xmlnsXlink="http://www.w3.org/1999/xlink" width="1080" zoomAndPan="magnify" viewBox="0 0 810 1439.999935" height="1920" preserveAspectRatio="xMidYMid meet" version="1.0"><defs><g/><clipPath id="fdf776afe3"><path d="M 38 600 L 776 600 L 776 966 L 38 966 Z M 38 600 " clipRule="nonzero"/></clipPath><clipPath id="b1fcb3ae85"><path d="M 20.507812 700.636719 L 759.875 574.789062 L 809.960938 869.054688 L 70.597656 994.90625 Z M 20.507812 700.636719 " clipRule="nonzero"/></clipPath><clipPath id="301972240e"><path d="M 20.507812 700.636719 L 759.875 574.789062 L 809.960938 869.054688 L 70.597656 994.90625 Z M 20.507812 700.636719 " clipRule="nonzero"/></clipPath><clipPath id="cc95fda265"><path d="M 120 512 L 661 512 L 661 702 L 120 702 Z M 120 512 " clipRule="nonzero"/></clipPath><clipPath id="6acc6fd6e1"><path d="M 110.457031 548.628906 L 656.832031 503.316406 L 669.972656 661.769531 L 123.601562 707.085938 Z M 110.457031 548.628906 " clipRule="nonzero"/></clipPath><clipPath id="52662c856d"><path d="M 110.457031 548.628906 L 656.832031 503.316406 L 669.972656 661.769531 L 123.601562 707.085938 Z M 110.457031 548.628906 " clipRule="nonzero"/></clipPath><clipPath id="9714867334"><path d="M 641 354 L 779 354 L 779 533 L 641 533 Z M 641 354 " clipRule="nonzero"/></clipPath><clipPath id="733ce0bfa8"><path d="M 689.445312 345.09375 L 805.414062 392.410156 L 732.882812 570.179688 L 616.914062 522.867188 Z M 689.445312 345.09375 " clipRule="nonzero"/></clipPath><clipPath id="2e58dab519"><path d="M 689.445312 345.09375 L 805.414062 392.410156 L 732.882812 570.179688 L 616.914062 522.867188 Z M 689.445312 345.09375 " clipRule="nonzero"/></clipPath><clipPath id="57adc680bd"><path d="M 528 313 L 657 313 L 657 506 L 528 506 Z M 528 313 " clipRule="nonzero"/></clipPath><clipPath id="e14a620305"><path d="M 538.089844 311.789062 L 662.898438 322.292969 L 646.800781 513.617188 L 521.992188 503.113281 Z M 538.089844 311.789062 " clipRule="nonzero"/></clipPath><clipPath id="deddfdc2a7"><path d="M 538.089844 311.789062 L 662.898438 322.292969 L 646.800781 513.617188 L 521.992188 503.113281 Z M 538.089844 311.789062 " clipRule="nonzero"/></clipPath><clipPath id="2098dbb34e"><path d="M 393 315 L 512 315 L 512 520 L 393 520 Z M 393 315 " clipRule="nonzero"/></clipPath><clipPath id="0f6dc32724"><path d="M 370.90625 340.71875 L 491.75 307.792969 L 542.230469 493.035156 L 421.386719 525.964844 Z M 370.90625 340.71875 " clipRule="nonzero"/></clipPath><clipPath id="e1957aa176"><path d="M 370.90625 340.71875 L 491.75 307.792969 L 542.230469 493.035156 L 421.386719 525.964844 Z M 370.90625 340.71875 " clipRule="nonzero"/></clipPath><clipPath id="fcdfe4d5e3"><path d="M 249 1024 L 583 1024 L 583 1101 L 249 1101 Z M 249 1024 " clipRule="nonzero"/></clipPath><clipPath id="ff74904937"><path d="M 262.496094 996.042969 L 582.898438 1044.207031 L 567.957031 1143.589844 L 247.554688 1095.425781 Z M 262.496094 996.042969 " clipRule="nonzero"/></clipPath><clipPath id="98709febda"><path d="M 262.496094 996.042969 L 582.898438 1044.207031 L 567.957031 1143.589844 L 247.554688 1095.425781 Z M 262.496094 996.042969 " clipRule="nonzero"/></clipPath></defs><g clipPath="url(#fdf776afe3)"><g clipPath="url(#b1fcb3ae85)"><g clipPath="url(#301972240e)"><path fill="#174362" d="M 309 922.042969 C 308.785156 921.191406 308.570312 920.339844 308.355469 919.492188 C 305.351562 920.265625 302.347656 921.035156 299.347656 921.808594 C 299.5625 922.671875 299.785156 923.527344 300 924.390625 C 303 923.605469 306.003906 922.824219 309 922.042969 M 269.308594 914.78125 C 273.355469 916.152344 277.28125 917.324219 280.273438 912.675781 C 281.121094 911.351562 282.480469 909.910156 283.902344 909.464844 C 300.398438 904.324219 311.359375 890.503906 326.148438 882.683594 C 332.832031 879.152344 337.511719 872.503906 345.4375 870.582031 C 347.410156 870.109375 348.664062 866.652344 351.9375 862.339844 C 347.007812 863.464844 344.613281 863.566406 342.640625 864.53125 C 321.113281 875.039062 298.253906 878.367188 274.59375 877.347656 C 262.5625 876.832031 262.566406 876.707031 260.3125 865.054688 C 260.003906 863.457031 259.738281 861.847656 259.5 860.5 C 248.140625 852.863281 238.96875 861.507812 229.296875 864.140625 C 216.394531 867.65625 203.792969 872.300781 191.132812 876.648438 C 188.894531 877.417969 186.9375 879.058594 184.921875 880.410156 C 181.207031 882.894531 177.9375 886.292969 172.660156 884.652344 C 171.292969 884.230469 168.386719 884.769531 168.078125 885.585938 C 165.300781 892.917969 157.496094 888.425781 152.882812 892.410156 C 148.433594 896.257812 142.164062 898.132812 136.503906 900.410156 C 130.542969 902.8125 124.351562 904.667969 117.8125 906.914062 C 115.792969 903.441406 114.4375 901.109375 112.976562 898.597656 C 111.886719 898.628906 110.589844 898.359375 109.535156 898.753906 C 102.691406 901.277344 96.078125 905.148438 89.039062 906.160156 C 84.023438 906.878906 78.46875 903.816406 72.464844 902.261719 C 74.257812 896.074219 75.578125 891.515625 77.210938 885.882812 C 73.351562 884.695312 70.070312 883.6875 65.34375 882.230469 C 68.972656 878.609375 72.148438 875.433594 77.710938 869.875 C 69.964844 870.757812 65.121094 871.3125 58.890625 872.023438 C 59.835938 860.050781 71.859375 857.832031 76.835938 849.429688 C 73.359375 840.09375 65.816406 844.734375 58.777344 845.613281 C 58.796875 834.75 52.414062 829.90625 42.234375 828.277344 C 42.796875 824.132812 43.46875 820.574219 43.722656 816.992188 C 43.996094 813.160156 45.996094 808.871094 40.207031 806.535156 C 38.949219 806.03125 38.332031 801.21875 39.074219 798.925781 C 42.417969 788.585938 40.371094 776.570312 48.714844 767.726562 C 49.625 766.761719 49.519531 764.5625 49.417969 762.964844 C 48.660156 750.785156 47.726562 738.617188 46.984375 726.441406 C 46.765625 722.886719 46.996094 719.304688 47.023438 714.738281 C 61.300781 718.007812 69.046875 706.757812 79.847656 703.152344 C 83.671875 701.871094 86.980469 698.941406 90.828125 697.863281 C 102.761719 694.523438 112.652344 685.109375 126.1875 686.265625 C 128.558594 686.46875 131.167969 683.886719 134.203125 682.3125 C 140.074219 690.335938 148.179688 687.066406 155.625 685.914062 C 187.292969 680.996094 218.929688 675.886719 250.523438 670.519531 C 260.246094 668.871094 269.734375 665.828125 279.441406 664.050781 C 309.382812 658.566406 339.375 653.378906 369.351562 648.097656 C 381.113281 646.023438 392.828125 643.53125 404.667969 642.070312 C 419.339844 640.261719 434.109375 639.222656 448.851562 638.050781 C 457.324219 637.375 465.839844 636.589844 474.316406 636.742188 C 495.269531 637.121094 515.246094 629.632812 536.558594 630.644531 C 551.285156 631.34375 566.878906 629.566406 581.164062 623.234375 C 591.152344 618.808594 601.691406 619.605469 612.488281 619.808594 C 630.542969 620.15625 648.652344 618.261719 666.726562 617.0625 C 670.617188 616.804688 674.441406 615.5 680.933594 614.113281 C 675.847656 610.722656 673.136719 608.914062 669.886719 606.75 C 671.257812 605.679688 672.203125 604.355469 672.96875 604.449219 C 676.199219 604.851562 679.394531 605.601562 682.570312 606.351562 C 693.621094 608.972656 704.269531 609.09375 713.972656 601.914062 C 715.207031 601 717.015625 600.867188 717.894531 600.585938 C 726.59375 607.824219 734.886719 614.5 742.878906 621.527344 C 744.941406 623.339844 746.710938 626.039062 747.484375 628.667969 C 750.578125 639.179688 757.457031 646.671875 766.285156 652.351562 C 772.136719 656.125 774.570312 660.421875 774.046875 667.601562 C 773.496094 675.195312 772.128906 682.855469 775.515625 690.652344 C 777.851562 696.03125 770.597656 703.878906 762.339844 705.941406 C 756.765625 707.335938 750.988281 707.960938 745.277344 708.726562 C 741.601562 709.222656 737.878906 709.535156 734.171875 709.632812 C 716.660156 710.097656 706.960938 719.6875 702.5 735.976562 C 701.359375 740.140625 698.878906 743.9375 696.71875 748.527344 C 700.460938 749.792969 703.082031 750.867188 705.796875 751.566406 C 715.707031 754.121094 725.6875 756.417969 735.566406 759.070312 C 743.253906 761.128906 749.742188 763.832031 752.609375 773.074219 C 754.363281 778.738281 759.011719 784.402344 766.722656 785.511719 C 772.914062 786.402344 772.066406 790.207031 768.703125 795.40625 C 762.570312 787.847656 754.691406 787.441406 746.589844 788.113281 C 744.605469 788.28125 741.34375 788.558594 740.925781 789.644531 C 735.800781 803.113281 722.585938 801.527344 712.382812 804.796875 C 696.429688 809.910156 680.082031 813.84375 663.820312 817.96875 C 657.507812 819.570312 650.980469 820.328125 642.003906 821.921875 C 649.765625 814.300781 657.972656 814.226562 665.089844 812.222656 C 682.472656 807.335938 700.085938 803.265625 717.601562 798.859375 C 718.800781 798.558594 720.203125 798.460938 721.105469 797.757812 C 722.277344 796.84375 724.035156 795.085938 723.769531 794.265625 C 723.242188 792.644531 721.71875 790.527344 720.230469 790.164062 C 711.144531 787.960938 701.867188 784.359375 692.824219 784.785156 C 683.472656 785.230469 673.910156 788.8125 665.167969 792.671875 C 651.757812 798.585938 638.972656 805.914062 623.949219 813.65625 C 624.394531 806.789062 624.679688 802.386719 624.964844 797.984375 C 624.128906 797.683594 623.292969 797.378906 622.457031 797.074219 C 621.171875 799.574219 618.996094 801.992188 618.761719 804.585938 C 618.101562 811.953125 613.820312 814.996094 607.339844 817.203125 C 598.488281 820.21875 590.078125 824.503906 581.273438 827.675781 C 577.277344 829.117188 572.792969 829.203125 567.65625 830.046875 C 568.660156 821.667969 574.144531 821.015625 578.828125 818.832031 C 588.921875 814.128906 598.695312 808.742188 610.761719 802.519531 C 595.5625 795.914062 583.257812 808 569.273438 802.4375 C 577.371094 796.648438 584.273438 791.714844 591.167969 786.785156 C 590.851562 785.945312 590.53125 785.105469 590.210938 784.265625 C 577.335938 787.328125 564.019531 784.085938 551.171875 788.859375 C 541.488281 792.457031 541.351562 792.089844 534.503906 783.230469 C 522.839844 785.105469 510.597656 786.617188 498.601562 789.238281 C 494.097656 790.222656 490.421875 794.644531 485.914062 796.023438 C 471.148438 800.539062 456.171875 804.378906 441.269531 808.472656 C 440.074219 808.800781 438.886719 809.316406 437.671875 809.382812 C 419.652344 810.421875 403.953125 818.464844 387.894531 825.558594 C 384.222656 827.179688 379.808594 827.046875 375.820312 828.046875 C 367.441406 830.148438 359.109375 832.433594 350.777344 834.707031 C 345.246094 836.210938 341.386719 839.550781 339.429688 845.609375 C 344.585938 850.25 350.269531 848.375 355.355469 846.316406 C 362.265625 843.519531 368.691406 839.125 375.78125 845.925781 C 376.550781 846.664062 379.035156 846.207031 380.429688 845.609375 C 390.214844 841.398438 399.996094 837.15625 409.644531 832.640625 C 428.601562 823.773438 447.253906 814.195312 468.160156 810.40625 C 471.320312 809.835938 474.238281 808.035156 477.34375 807.046875 C 495.179688 801.351562 513.039062 795.734375 532.019531 792.191406 C 530.511719 793.433594 529.191406 795.246094 527.457031 795.820312 C 519.269531 798.539062 511.078125 801.425781 502.675781 803.292969 C 490.925781 805.910156 482.089844 811.195312 475.496094 822.023438 C 472.367188 827.15625 464.527344 831.320312 458.289062 832.21875 C 449.382812 833.496094 445.273438 837.207031 443.921875 845.800781 C 446.429688 846.449219 448.71875 847.039062 453.03125 848.152344 C 443.492188 851.46875 434.488281 853.027344 429.421875 863.117188 C 444.382812 862.359375 457.863281 861.714844 471.335938 860.96875 C 474.621094 860.789062 478.078125 859.757812 479.613281 864.074219 L 479.476562 863.761719 C 461.070312 864.914062 444.078125 871.714844 427.699219 879.039062 C 405.015625 889.179688 381.292969 895.972656 357.984375 904.132812 C 353.769531 905.609375 349.660156 907.753906 345.988281 910.296875 C 342.472656 912.722656 343.128906 915.75 347.488281 919.105469 C 353.367188 912.667969 360.890625 910.441406 369.527344 912.257812 C 370.570312 912.480469 371.964844 911.863281 372.96875 911.261719 C 397.164062 896.730469 424.183594 889.5 450.816406 881.386719 C 465.269531 876.984375 480.144531 873.980469 494.648438 869.71875 C 502.359375 867.453125 509.628906 863.714844 517.195312 860.894531 C 522.910156 858.765625 528.707031 856.78125 534.589844 855.183594 C 549.226562 851.199219 563.941406 847.5 578.613281 843.636719 C 587.71875 841.234375 596.679688 837.867188 605.933594 836.648438 C 610.578125 836.03125 614.34375 834.800781 618.449219 832.886719 C 624.953125 829.855469 631.839844 829.378906 639.683594 834 C 637.390625 839.058594 635.289062 843.691406 632.882812 849 C 636.191406 850.574219 639.210938 852.011719 644.355469 854.457031 C 637.9375 856.53125 633.632812 857.921875 628.574219 859.554688 C 623.6875 850.390625 615.609375 854.027344 608.238281 854.820312 C 601.011719 855.597656 596.394531 860.351562 593.636719 866.507812 C 589.171875 876.460938 588.972656 876.664062 580.949219 868.390625 C 571.964844 871.644531 562.878906 874.929688 553.800781 878.214844 L 552.496094 876.703125 C 554.066406 874.8125 555.296875 872.363281 557.28125 871.148438 C 561.480469 868.585938 566.097656 866.707031 570.5 864.460938 C 574.207031 862.570312 576.679688 860.140625 572.558594 854.132812 C 560.578125 857.066406 547.800781 859.621094 535.378906 863.359375 C 513.300781 870.011719 491.449219 877.402344 469.480469 884.433594 C 463.671875 886.292969 457.78125 887.886719 451.984375 889.777344 C 450.066406 890.402344 447.628906 891.105469 446.636719 892.585938 C 441.484375 900.265625 435.046875 904.03125 425.683594 901.015625 C 425.007812 900.796875 423.832031 900.929688 423.382812 901.386719 C 410.546875 914.566406 392.820312 916.964844 376.496094 921.71875 C 357.175781 927.34375 338.195312 933.691406 319.570312 941.222656 C 317.695312 941.980469 315.621094 942.351562 313.601562 942.640625 C 294.683594 945.34375 277.210938 952.210938 260.003906 960.257812 C 253.890625 963.121094 246.78125 963.828125 240.355469 965.460938 C 236.558594 960.140625 233.605469 955.996094 230.226562 951.265625 C 232 943.769531 245.570312 943.753906 245.546875 933.84375 C 244.699219 933.054688 243.851562 932.265625 243 931.476562 C 239.480469 934.503906 235.960938 937.53125 233.730469 939.449219 C 227.664062 940.691406 223.019531 941.625 218.382812 942.601562 C 214.921875 943.335938 214.929688 943.359375 213.132812 937.273438 C 231.835938 935.566406 243.984375 923.464844 255.335938 907.832031 C 256.144531 911.414062 256.636719 912.496094 256.558594 913.539062 C 256.46875 914.695312 255.859375 915.816406 254.835938 918.835938 C 260.542969 917.28125 265.097656 916.039062 269.65625 914.800781 Z M 269.308594 914.78125 " fillOpacity="1" fillRule="nonzero"/></g></g></g><g fill="#ffffff" fillOpacity="1"><g transform="translate(148.683311, 819.580545)"><g><path d="M 57.75 -6.9375 C 45.988281 -5.125 36.316406 -4.929688 28.734375 -6.359375 C 21.148438 -7.785156 15.140625 -10.421875 10.703125 -14.265625 C 6.273438 -18.109375 2.96875 -22.816406 0.78125 -28.390625 L 39.5 -34.34375 C 43.007812 -30.664062 47.894531 -29.3125 54.15625 -30.28125 C 60.425781 -31.238281 64.675781 -33.992188 66.90625 -38.546875 C 67.082031 -39.003906 67.148438 -39.390625 67.109375 -39.703125 C 66.941406 -40.796875 65.367188 -41.394531 62.390625 -41.5 C 59.421875 -41.601562 55.039062 -41.359375 49.25 -40.765625 C 41.96875 -39.972656 34.257812 -39.570312 26.125 -39.5625 C 7.957031 -39.582031 -2.007812 -45.351562 -3.78125 -56.875 C -3.925781 -57.84375 -4.019531 -58.878906 -4.0625 -59.984375 C -3.65625 -65.953125 -1.914062 -71.4375 1.15625 -76.4375 C 4.226562 -81.445312 9.164062 -85.765625 15.96875 -89.390625 C 22.78125 -93.015625 32.066406 -95.734375 43.828125 -97.546875 C 55.585938 -99.347656 65.253906 -99.539062 72.828125 -98.125 C 80.398438 -96.707031 86.40625 -94.070312 90.84375 -90.21875 C 95.289062 -86.375 98.601562 -81.664062 100.78125 -76.09375 L 62.0625 -70.140625 C 58.5625 -73.816406 53.675781 -75.175781 47.40625 -74.21875 C 41.144531 -73.25 36.894531 -70.488281 34.65625 -65.9375 C 34.507812 -65.582031 34.457031 -65.257812 34.5 -64.96875 C 34.644531 -64 36.132812 -63.492188 38.96875 -63.453125 C 41.8125 -63.421875 45.953125 -63.65625 51.390625 -64.15625 C 56.835938 -64.664062 62.664062 -65.023438 68.875 -65.234375 C 75.09375 -65.453125 80.992188 -65.066406 86.578125 -64.078125 C 92.171875 -63.085938 96.738281 -61.070312 100.28125 -58.03125 C 103.03125 -55.675781 104.722656 -52.414062 105.359375 -48.25 C 105.535156 -47.082031 105.625 -45.832031 105.625 -44.5 C 105.226562 -38.53125 103.488281 -33.046875 100.40625 -28.046875 C 97.320312 -23.046875 92.378906 -18.726562 85.578125 -15.09375 C 78.785156 -11.457031 69.507812 -8.738281 57.75 -6.9375 Z M 57.75 -6.9375 "/></g></g></g><g fill="#ffffff" fillOpacity="1"><g transform="translate(263.711766, 801.913258)"><g><path d="M 146.0625 -22.4375 L 109.09375 -16.75 L 98.71875 -29.734375 L 43.859375 -21.3125 L 37.890625 -5.8125 L 0.90625 -0.140625 L 43.203125 -95.59375 L 77.078125 -100.796875 Z M 83.109375 -49.359375 L 63.96875 -73.40625 L 52.875 -44.71875 Z M 83.109375 -49.359375 "/></g></g></g><g fill="#ffffff" fillOpacity="1"><g transform="translate(410.679086, 779.340464)"><g><path d="M 111.203125 -17.078125 L 9.703125 -1.484375 L -3.65625 -88.453125 L 32.8125 -94.0625 L 42.875 -28.609375 L 107.90625 -38.59375 Z M 111.203125 -17.078125 "/></g></g></g><g fill="#ffffff" fillOpacity="1"><g transform="translate(524.313612, 761.887272)"><g><path d="M 114.421875 -17.578125 L 9.703125 -1.484375 L -3.65625 -88.453125 L 96.28125 -103.8125 L 99.59375 -82.296875 L 36.125 -72.546875 L 38.21875 -58.90625 L 91.859375 -67.140625 L 94.421875 -50.421875 L 40.78125 -42.1875 L 42.875 -28.609375 L 111.125 -39.09375 Z M 114.421875 -17.578125 "/></g></g></g><g clipPath="url(#cc95fda265)"><g clipPath="url(#6acc6fd6e1)"><g clipPath="url(#52662c856d)"><path fill="#ff914d" d="M 234.308594 564.566406 C 234.3125 561.136719 234.597656 557.6875 237.90625 556.269531 C 240.386719 555.207031 242.941406 554.996094 245.46875 554.5 C 251.355469 553.15625 257.242188 551.808594 263.152344 550.75 C 273.839844 548.71875 284.261719 547 294.949219 544.96875 C 298.894531 544.355469 302.796875 543.175781 306.746094 542.5625 C 312.394531 541.808594 318.066406 541.339844 324 540.5625 C 325.136719 540.464844 326.269531 540.371094 327.382812 539.996094 C 333.007812 538.957031 338.304688 537.375 343.953125 536.621094 C 347.902344 536.007812 351.636719 536.269531 355.582031 535.65625 C 358.421875 535.421875 361.46875 534.3125 364.28125 533.792969 C 367.949219 533.203125 371.589844 532.328125 375.535156 531.714844 C 385.960938 529.996094 396.410156 528.558594 406.859375 527.121094 C 411.941406 526.414062 417.023438 525.707031 422.414062 525.257812 C 428.652344 524.742188 434.917969 524.507812 441.132812 523.707031 C 446.5 522.976562 451.84375 521.960938 457.492188 521.207031 C 458.628906 521.113281 460.09375 521.5625 461.511719 521.445312 C 465.789062 521.375 469.667969 519.910156 474.015625 520.691406 C 476.046875 521.097656 478.484375 519.464844 480.730469 518.992188 C 482.433594 518.851562 483.875 519.019531 486.191406 519.398438 C 489.476562 517.695312 494.0625 517.886719 498.648438 518.078125 C 498.929688 518.054688 499.546875 518.574219 499.828125 518.550781 C 504.25 516.757812 508.859375 517.230469 513.683594 516.832031 C 523.632812 516.292969 533.277344 515.492188 543.230469 514.953125 C 548.925781 514.765625 554.671875 515.144531 560.34375 514.675781 C 568.027344 514.324219 575.921875 513.097656 583.605469 512.746094 C 585.304688 512.605469 587.339844 513.007812 589.089844 513.433594 C 589.113281 513.71875 589.136719 514 588.875 514.308594 C 588.308594 514.355469 587.742188 514.402344 586.890625 514.472656 C 587.21875 515.015625 587.527344 515.277344 587.835938 515.539062 C 588.117188 515.515625 588.6875 515.46875 588.96875 515.445312 C 594.953125 511.804688 601.472656 514.691406 607.976562 513.867188 C 610.789062 513.347656 614.378906 515.335938 617.335938 516.519531 C 617.925781 516.753906 618.46875 519.851562 618.207031 520.160156 C 615.75 521.503906 618.183594 523.304688 617.425781 524.507812 C 618.867188 524.675781 620.285156 524.554688 621.726562 524.722656 C 628.371094 525.601562 635.320312 523.308594 642.101562 525.890625 C 645.058594 527.070312 645.507812 529.035156 644.890625 531.941406 C 644.675781 532.816406 644.203125 533.996094 644.558594 534.824219 C 645.382812 537.898438 644.203125 540.851562 641.105469 541.394531 C 638.859375 541.867188 636.542969 541.488281 634.273438 541.675781 C 632.855469 541.792969 631.742188 542.171875 630.324219 542.289062 C 630.347656 542.574219 630.371094 542.855469 630.394531 543.140625 C 635.902344 544.113281 641.125 545.105469 646.585938 545.511719 C 649.46875 545.84375 652.285156 545.324219 655.167969 545.65625 C 656.042969 545.867188 656.726562 547.238281 657.648438 548.019531 C 655.757812 549.320312 657.8125 550.007812 658.167969 550.832031 C 658.945312 553.339844 661.191406 556.292969 660.8125 558.609375 C 660.21875 561.800781 658.515625 565.371094 656.105469 567.285156 C 652.367188 570.449219 647.972656 572.527344 644.140625 574.558594 C 644.425781 574.535156 645.582031 574.726562 646.742188 574.914062 C 650.167969 574.917969 652.601562 576.714844 652.578125 579.859375 C 652.742188 581.84375 649.738281 583.519531 646.925781 584.039062 C 645.792969 584.132812 644.703125 584.796875 643.617188 585.457031 C 647.917969 589.097656 647.890625 592.242188 644.15625 595.410156 C 643.613281 595.738281 642.761719 595.808594 642.21875 596.140625 C 640.800781 596.257812 639.664062 596.351562 638.246094 596.46875 C 635.125 596.730469 631.722656 597.011719 628.601562 597.269531 C 628.316406 597.292969 628.105469 598.167969 627.867188 598.757812 C 634.15625 598.808594 640.136719 598.597656 646.164062 598.957031 C 647.890625 599.097656 649.496094 601.25 650.488281 602.882812 C 650.84375 603.707031 650.15625 605.765625 649.09375 606.710938 C 647.246094 608.578125 645.097656 610.183594 641.929688 609.875 C 640.488281 609.707031 639.164062 610.960938 637.742188 611.078125 C 636.347656 611.480469 634.90625 611.3125 632.945312 611.761719 C 634.976562 612.164062 636.160156 612.636719 637.601562 612.804688 C 639.351562 613.230469 640.792969 613.394531 642.519531 613.539062 C 643.085938 613.492188 643.390625 613.75 643.9375 613.421875 C 647.222656 611.71875 649.894531 612.925781 652.375 615.292969 C 652.679688 615.550781 653.273438 615.789062 654.171875 616.285156 C 653.082031 616.945312 652.253906 617.300781 650.90625 618.269531 C 652.113281 619.027344 653.269531 619.214844 654.476562 619.972656 C 648.871094 624.722656 642.371094 625.546875 635.210938 625.285156 C 637.097656 627.410156 638.683594 629.28125 640.550781 631.125 C 640.289062 631.433594 640.027344 631.738281 639.769531 632.046875 C 639.15625 631.527344 638.5625 631.289062 637.335938 630.25 C 638.019531 631.621094 638.375 632.449219 638.703125 632.992188 C 636.765625 633.722656 634.542969 634.480469 632.039062 635.257812 C 631.164062 635.042969 629.699219 634.59375 628.585938 634.972656 C 622.960938 636.011719 617.664062 637.59375 612.039062 638.628906 C 605.84375 639.714844 599.582031 639.949219 593.625 640.441406 C 592.207031 640.5625 590.835938 641.246094 589.441406 641.648438 C 590.644531 645.832031 588.515625 647.722656 583.953125 647.8125 C 580.242188 647.835938 576.316406 648.734375 572.324219 648.777344 C 569.203125 649.039062 566.011719 648.445312 563.152344 648.398438 C 560.292969 648.347656 557.523438 649.433594 554.640625 649.101562 C 551.757812 648.769531 548.753906 650.449219 546.039062 648.675781 C 545.730469 648.414062 544.902344 648.769531 544.359375 649.097656 C 539.039062 650.398438 534.027344 651.953125 528.285156 651.574219 C 526.273438 651.457031 523.722656 651.667969 521.453125 651.855469 C 518.332031 652.113281 515.472656 652.066406 512.351562 652.324219 C 510.933594 652.441406 509.230469 652.582031 507.8125 652.699219 C 502.730469 653.40625 497.957031 654.375 492.800781 654.230469 C 489.089844 654.253906 485.710938 654.820312 482.308594 655.101562 C 478.621094 655.40625 474.90625 655.429688 470.9375 655.757812 C 468.382812 655.972656 465.902344 657.035156 463.585938 656.65625 C 458.125 656.25 453.207031 658.945312 447.699219 657.972656 C 443.351562 657.191406 438.644531 659.007812 434.105469 659.386719 C 430.417969 659.691406 426.828125 661.132812 422.785156 660.609375 C 419.617188 660.300781 415.054688 660.394531 411.816406 662.660156 C 411.273438 662.992188 409.804688 662.542969 408.671875 662.636719 C 406.402344 662.824219 403.871094 663.320312 401.605469 663.507812 C 397.914062 663.816406 394.488281 663.8125 390.824219 664.402344 C 389.691406 664.496094 388.933594 665.703125 387.796875 665.796875 C 385.550781 666.269531 383 666.480469 380.730469 666.667969 C 375.082031 667.421875 369.074219 667.347656 363.757812 668.648438 C 360.140625 669.804688 356.003906 668.148438 352.835938 671.265625 C 352.574219 671.574219 352.269531 671.3125 351.699219 671.359375 C 342.03125 671.875 332.8125 674.355469 323.214844 675.722656 C 321.230469 675.886719 319.078125 677.492188 317.046875 677.089844 C 310.96875 676.167969 305.695312 681.460938 299.292969 679.992188 C 297.828125 679.542969 296.242188 681.101562 294.539062 681.242188 C 290.59375 681.855469 286.3125 681.925781 282.035156 681.992188 C 282.601562 681.945312 283.195312 682.183594 283.476562 682.160156 C 283.5 682.445312 283.523438 682.726562 283.546875 683.011719 C 282.414062 683.105469 280.996094 683.222656 279.859375 683.316406 C 277.589844 683.503906 275.0625 684 272.792969 684.1875 C 266.574219 684.988281 260.359375 685.789062 254.449219 686.851562 C 252.484375 687.300781 250.570312 688.316406 248.632812 689.046875 C 247.238281 689.449219 246.101562 689.542969 244.707031 689.945312 C 242.746094 690.394531 241.042969 690.535156 239.082031 690.984375 C 238.796875 691.007812 238.277344 691.621094 238.277344 691.621094 C 234.992188 689.894531 232.367188 692.683594 229.175781 692.089844 C 226.578125 691.734375 224.09375 692.796875 221.566406 693.292969 C 217.640625 694.1875 213.714844 695.085938 209.792969 695.984375 C 206.152344 696.855469 202.511719 697.730469 198.847656 698.320312 C 196.601562 698.789062 194.566406 698.386719 192.300781 698.574219 C 190.878906 698.695312 189.273438 699.96875 187.832031 699.804688 C 182.039062 698.855469 176.601562 702.164062 170.527344 701.238281 C 164.738281 700.289062 158.496094 700.808594 152.632812 699.007812 C 151.453125 698.535156 150.4375 696.621094 149.207031 695.582031 C 147.082031 694.042969 144.929688 692.222656 142.828125 690.96875 C 140.699219 689.429688 138.597656 688.175781 137.085938 687.160156 C 137.984375 684.230469 138.671875 682.171875 139.332031 679.832031 C 136.214844 680.09375 133.019531 682.929688 130.1875 679.734375 C 128.390625 678.742188 126.925781 678.292969 126.902344 678.007812 C 127.351562 676.542969 128.058594 674.769531 129.101562 673.542969 C 129.335938 672.949219 130.472656 672.855469 131.511719 671.628906 C 130.332031 671.15625 129.148438 670.683594 127.96875 670.207031 C 125.320312 669.285156 122.695312 668.644531 120.355469 667.984375 C 120.125 661.71875 124.660156 661.34375 127.925781 659.359375 C 130.359375 657.730469 133.433594 656.902344 136.4375 655.226562 C 133.597656 655.460938 130.714844 655.128906 127.878906 655.363281 C 125.324219 655.574219 120.269531 653.140625 120.363281 650.847656 C 120.53125 649.402344 122.066406 647.277344 123.460938 646.875 C 127.644531 645.671875 131.167969 643.378906 134.363281 640.546875 C 135.945312 638.984375 139.066406 638.726562 142.398438 637.59375 C 140.652344 637.167969 140.011719 636.363281 139.160156 636.433594 C 135.496094 637.023438 132.210938 635.296875 128.953125 633.855469 C 128.054688 633.355469 127.015625 631.160156 127.203125 630 C 128.386719 627.046875 128.671875 623.59375 132.878906 622.675781 C 136.472656 621.234375 136.402344 620.382812 133.378906 618.347656 C 132.148438 617.308594 132.601562 612.414062 133.972656 611.730469 C 134.515625 611.398438 135.082031 611.351562 136.453125 610.667969 C 133.757812 609.175781 131.964844 608.183594 130.78125 607.710938 C 130.664062 606.292969 130.570312 605.15625 130.144531 603.480469 C 133.078125 600.953125 137.261719 599.746094 141.777344 599.085938 C 146.859375 598.378906 151.824219 596.253906 156.835938 594.695312 C 160.453125 593.539062 163.90625 590.398438 168.324219 592.03125 C 168.914062 592.265625 169.980469 591.320312 170.523438 590.992188 C 168.445312 590.019531 166.363281 589.050781 164.285156 588.082031 C 161.304688 586.613281 161.023438 583.210938 163.742188 581.554688 C 167.007812 579.574219 170.859375 577.824219 174.785156 576.929688 C 180.078125 575.347656 185.46875 574.898438 190.789062 573.601562 C 196.390625 572.28125 201.945312 570.390625 207.550781 569.070312 C 210.90625 568.21875 214.308594 567.9375 217.972656 567.347656 C 221.070312 566.804688 224.429688 565.957031 227.523438 565.414062 C 229.464844 564.679688 231.472656 564.800781 234.308594 564.566406 Z M 594.972656 522.371094 C 594.949219 522.089844 594.921875 521.804688 594.898438 521.519531 C 590.054688 521.636719 584.902344 521.492188 579.773438 521.632812 C 578.613281 524.871094 578.636719 525.15625 580.90625 524.964844 C 585.679688 524 590.457031 523.03125 594.972656 522.371094 Z M 327.273438 635.113281 C 327.296875 635.398438 327.34375 635.964844 327.367188 636.25 C 334.386719 634.808594 341.101562 633.109375 348.125 631.671875 C 348.101562 631.386719 348.054688 630.820312 347.746094 630.558594 C 341.03125 632.257812 334.292969 633.675781 327.273438 635.113281 Z M 366.308594 551.332031 C 366.332031 551.617188 366.378906 552.183594 366.6875 552.445312 C 372.03125 551.429688 377.347656 550.132812 382.40625 549.140625 C 382.382812 548.855469 382.359375 548.574219 382.3125 548.007812 C 377.066406 550.15625 371.15625 547.789062 366.308594 551.332031 Z M 448.636719 562.5 C 448.660156 562.78125 448.707031 563.351562 448.730469 563.632812 C 454.945312 562.832031 461.140625 561.746094 467.359375 560.945312 C 467.335938 560.664062 467.3125 560.378906 467.289062 560.09375 C 460.597656 558.652344 454.96875 563.117188 448.636719 562.5 Z M 326.777344 636.011719 C 324.507812 636.199219 322.238281 636.386719 319.992188 636.859375 C 318.03125 637.308594 316.066406 637.757812 314.105469 638.207031 C 318.5 639.554688 322.734375 638.917969 326.777344 636.011719 Z M 326.777344 636.011719 " fillOpacity="1" fillRule="nonzero"/></g></g></g><g clipPath="url(#9714867334)"><g clipPath="url(#733ce0bfa8)"><g clipPath="url(#2e58dab519)"><path fill="#174362" d="M 711.207031 354.003906 L 778.613281 381.507812 L 714.675781 438.40625 L 776.070312 463.457031 L 641.121094 532.652344 L 694.464844 470.738281 L 646.316406 451.09375 Z M 711.207031 354.003906 " fillOpacity="1" fillRule="nonzero"/></g></g></g><g clipPath="url(#57adc680bd)"><g clipPath="url(#e14a620305)"><g clipPath="url(#deddfdc2a7)"><path fill="#174362" d="M 561.523438 313.792969 L 634.066406 319.898438 L 590.050781 393.304688 L 656.125 398.863281 L 548.019531 505.222656 L 580.425781 430.195312 L 528.605469 425.835938 Z M 561.523438 313.792969 " fillOpacity="1" fillRule="nonzero"/></g></g></g><g clipPath="url(#2098dbb34e)"><g clipPath="url(#0f6dc32724)"><g clipPath="url(#e1957aa176)"><path fill="#174362" d="M 393.605469 334.566406 L 463.84375 315.425781 L 447.667969 399.476562 L 511.640625 382.042969 L 446.554688 519.019531 L 451.273438 437.429688 L 401.101562 451.101562 Z M 393.605469 334.566406 " fillOpacity="1" fillRule="nonzero"/></g></g></g><g clipPath="url(#fcdfe4d5e3)"><g clipPath="url(#ff74904937)"><g clipPath="url(#98709febda)"><path fill="#ff914d" d="M 283.578125 1071.804688 C 287.085938 1073.691406 290.328125 1075.519531 293.664062 1077.199219 C 296.996094 1078.882812 299.457031 1081.542969 301.785156 1084.324219 C 303.441406 1086.296875 303.726562 1088.609375 302.46875 1090.941406 C 301.648438 1092.476562 300.777344 1094.046875 299.730469 1095.433594 C 295.882812 1100.484375 290.59375 1101.527344 284.847656 1098.984375 C 277.355469 1095.679688 275.417969 1092.253906 275.507812 1082.460938 C 275.519531 1080.398438 276.078125 1078.347656 276.441406 1075.949219 C 275.058594 1075.925781 273.65625 1075.738281 272.273438 1075.871094 C 266.867188 1076.351562 261.65625 1077.359375 256.949219 1080.421875 C 255.316406 1081.46875 253.175781 1081.828125 251.226562 1082.261719 C 249.933594 1082.542969 249.652344 1082.003906 250.265625 1080.800781 C 251.792969 1077.738281 254.300781 1075.234375 257.390625 1073.722656 C 264.011719 1070.429688 270.886719 1068.488281 278.382812 1069.976562 C 278.800781 1070.0625 279.554688 1069.722656 279.769531 1069.347656 C 285.136719 1060.527344 292.335938 1053.554688 300.441406 1047.210938 C 309.675781 1039.976562 320.285156 1034.644531 331.621094 1031.5625 C 341.472656 1028.84375 351.457031 1025.847656 361.699219 1025.210938 C 377.417969 1024.234375 392.832031 1026.324219 407.871094 1031.242188 C 423.539062 1036.34375 438.703125 1042.6875 453.9375 1048.835938 C 464.039062 1052.921875 474.148438 1057.09375 484.820312 1059.335938 C 493.027344 1061.070312 501.394531 1062.191406 509.734375 1063.171875 C 516.378906 1063.964844 523.078125 1064.40625 529.78125 1064.503906 C 537.824219 1064.625 545.554688 1062.425781 553.28125 1060.546875 C 563.335938 1058.132812 571.949219 1053.230469 578.863281 1045.460938 C 579.597656 1044.640625 580.378906 1043.828125 581.523438 1044.523438 C 582.667969 1045.214844 582.351562 1046.394531 581.960938 1047.335938 C 580.855469 1050.164062 579.003906 1052.65625 576.609375 1054.542969 C 569.875 1059.796875 562.683594 1064.140625 554.238281 1066.117188 C 546 1068.054688 537.835938 1070.414062 529.285156 1070.378906 C 523.753906 1070.339844 518.183594 1070.09375 512.65625 1069.558594 C 504.515625 1068.742188 496.359375 1067.878906 488.28125 1066.507812 C 476.351562 1064.484375 465.128906 1060.007812 453.914062 1055.644531 C 441.386719 1050.808594 428.992188 1045.515625 416.398438 1040.808594 C 406.0625 1036.941406 395.550781 1033.476562 384.464844 1032.171875 C 376.65625 1031.269531 368.71875 1029.851562 360.972656 1031.09375 C 345.0625 1033.648438 328.886719 1035.710938 314.40625 1043.546875 C 302.941406 1049.746094 292.730469 1057.585938 285.414062 1068.652344 C 284.742188 1069.640625 284.21875 1070.71875 283.578125 1071.804688 Z M 281.203125 1077.644531 C 279.800781 1081.0625 279.996094 1084.316406 280.523438 1087.597656 C 281.242188 1091.882812 284.703125 1094.964844 289.261719 1095.449219 C 293.21875 1095.859375 295.855469 1094.011719 297.636719 1089.554688 C 297.667969 1089.515625 297.722656 1089.457031 297.707031 1089.40625 C 297.558594 1088.726562 297.648438 1087.832031 297.238281 1087.386719 C 292.917969 1082.605469 287.246094 1080.003906 281.203125 1077.644531 Z M 281.203125 1077.644531 " fillOpacity="1" fillRule="nonzero"/></g></g></g><g fill="#ffffff" fillOpacity="1"><g transform="translate(212.926217, 654.06587)"><g><path d="M 25.6875 -4.046875 L 5.390625 -0.84375 L -2.234375 -49.21875 L 53.359375 -58 L 55.234375 -46.03125 L 19.9375 -40.453125 L 21.140625 -32.859375 L 50.96875 -37.578125 L 52.4375 -28.296875 L 22.609375 -23.578125 Z M 25.6875 -4.046875 "/></g></g></g><g fill="#ffffff" fillOpacity="1"><g transform="translate(276.600864, 644.017187)"><g><path d="M 61.859375 -9.765625 L 5.390625 -0.84375 L -2.234375 -49.21875 L 18.0625 -52.421875 L 23.796875 -16.015625 L 59.96875 -21.734375 Z M 61.859375 -9.765625 "/></g></g></g><g fill="#ffffff" fillOpacity="1"><g transform="translate(339.803597, 634.042978)"><g><path d="M 81.25 -12.8125 L 60.671875 -9.578125 L 54.875 -16.78125 L 24.375 -11.96875 L 21.0625 -3.328125 L 0.515625 -0.078125 L 23.828125 -53.3125 L 42.671875 -56.28125 Z M 46.140625 -27.671875 L 35.4375 -41.015625 L 29.3125 -25.015625 Z M 46.140625 -27.671875 "/></g></g></g><g fill="#ffffff" fillOpacity="1"><g transform="translate(421.545803, 621.143)"><g><path d="M 32.140625 -4 C 25.585938 -2.96875 20.195312 -2.832031 15.96875 -3.59375 C 11.75 -4.363281 8.398438 -5.816406 5.921875 -7.953125 C 3.441406 -10.097656 1.59375 -12.71875 0.375 -15.8125 L 21.921875 -19.21875 C 23.878906 -17.175781 26.601562 -16.429688 30.09375 -16.984375 C 33.570312 -17.523438 35.925781 -19.070312 37.15625 -21.625 C 37.238281 -21.875 37.269531 -22.082031 37.25 -22.25 C 37.144531 -22.863281 36.265625 -23.191406 34.609375 -23.234375 C 32.960938 -23.285156 30.535156 -23.140625 27.328125 -22.796875 C 23.273438 -22.335938 18.984375 -22.097656 14.453125 -22.078125 C 4.347656 -22.046875 -1.207031 -25.226562 -2.21875 -31.625 C -2.300781 -32.175781 -2.363281 -32.757812 -2.40625 -33.375 C -2.1875 -36.695312 -1.226562 -39.75 0.46875 -42.53125 C 2.164062 -45.320312 4.90625 -47.738281 8.6875 -49.78125 C 12.46875 -51.820312 17.632812 -53.359375 24.1875 -54.390625 C 30.71875 -55.421875 36.09375 -55.546875 40.3125 -54.765625 C 44.53125 -53.992188 47.878906 -52.539062 50.359375 -50.40625 C 52.835938 -48.28125 54.691406 -45.671875 55.921875 -42.578125 L 34.375 -39.1875 C 32.425781 -41.21875 29.710938 -41.960938 26.234375 -41.421875 C 22.742188 -40.867188 20.378906 -39.320312 19.140625 -36.78125 C 19.054688 -36.570312 19.03125 -36.390625 19.0625 -36.234375 C 19.144531 -35.703125 19.972656 -35.425781 21.546875 -35.40625 C 23.128906 -35.394531 25.429688 -35.535156 28.453125 -35.828125 C 31.484375 -36.117188 34.726562 -36.328125 38.1875 -36.453125 C 41.644531 -36.585938 44.929688 -36.382812 48.046875 -35.84375 C 51.160156 -35.3125 53.703125 -34.203125 55.671875 -32.515625 C 57.210938 -31.210938 58.164062 -29.40625 58.53125 -27.09375 C 58.632812 -26.445312 58.691406 -25.753906 58.703125 -25.015625 C 58.472656 -21.691406 57.507812 -18.628906 55.8125 -15.828125 C 54.113281 -13.035156 51.375 -10.625 47.59375 -8.59375 C 43.820312 -6.5625 38.671875 -5.03125 32.140625 -4 Z M 32.140625 -4 "/></g></g></g><g fill="#ffffff" fillOpacity="1"><g transform="translate(485.52381, 611.046442)"><g><path d="M 71.453125 -11.28125 L 51.15625 -8.078125 L 48.078125 -27.609375 L 22.609375 -23.578125 L 25.6875 -4.046875 L 5.390625 -0.84375 L -2.234375 -49.21875 L 18.0625 -52.421875 L 21.140625 -32.859375 L 46.609375 -36.890625 L 43.53125 -56.453125 L 63.828125 -59.65625 Z M 71.453125 -11.28125 "/></g></g></g><g fill="#ffffff" fillOpacity="1"><g transform="translate(562.379884, 598.917559)"><g/></g></g></svg>